<svg xmlns="http://www.w3.org/2000/svg" viewBox="0 0 579.1 375"><path fill="#9A141D" d="M439.8 180.6l-29 11.8c-5.6 2.2-9.4 6-11.7 11.5a20.5 20.5 0 0 0-.1 16.3c2.2 5.4 6 9.3 11.5 11.6a20.8 20.8 0 0 0 16.3 0l29-11.8a52 52 0 0 0-16-39.4z"/><linearGradient id="m" gradientUnits="userSpaceOnUse" x1="228.9" y1="-410.3" x2="229.9" y2="-410.3" gradientTransform="rotate(158.2 2333.8 -6311.6) scale(28.3279)"><stop offset="0" stop-color="#ededed"/><stop offset=".3" stop-color="#ededed"/><stop offset=".3" stop-color="#bfbfbf"/><stop offset="1" stop-color="#bfbfbf"/></linearGradient><path fill="url(#m)" d="M421 224.8c29.6-14.1 54.4-32 74-53.7a199.6 199.6 0 0 0 42.7-76 9 9 0 0 0-17.2-5.3c-8.2 26.6-21.1 49.5-38.9 69.3a214.3 214.3 0 0 1-68.4 49.5 9 9 0 1 0 7.7 16.2z"/><path fill="#E62C37" d="M439.8 180.6l-29 11.8c-5.6 2.2-9.5 5.8-12 10.6s-3.8 8.2-3.7 10c0 1.7.3 5.4 1 11s4.6 10.4 12.4 14.1c18-5.4 33.8-11.4 47.3-18.1a72 72 0 0 1-16-39.4z"/><path fill="#EDEDED" d="M527.1 72.9c-1.3-.7-2.4-1.4-3.2-2.1a9.9 9.9 0 0 1-2.8-3.6c-.6-1.3-.9-2.9-1-4.8 0-2 .4-4.2 1.2-6.8a5.5 5.5 0 0 0-10.5-3c-1 3.4-1.6 6.6-1.6 9.8 0 2.1.3 4.3.9 6.3.8 3 2.3 5.9 4.4 8.2 2.1 2.4 4.8 4.3 7.8 5.8a5.5 5.5 0 0 0 4.8-9.8zM548.6 84.2a39.3 39.3 0 0 0 24.5-12.6 5.5 5.5 0 0 0-7.9-7.6 33 33 0 0 1-8.5 6.4c-3 1.5-6 2.5-9.5 2.9a5.5 5.5 0 1 0 1.4 10.9z"/><path fill="#EDEDED" d="M557.1 44.6a36 36 0 0 1-5.3 11 43 43 0 0 1-9.2 9.3 5.5 5.5 0 1 0 6.6 8.7 47 47 0 0 0 18.5-26 5.5 5.5 0 1 0-10.6-3z"/><path fill="#B3B3B3" d="M542.4 61.7c-4.4-3-7.5-2.2-9.4 2.2-2 4.4-4.3 7-7.2 7.7-2.9.7-4.8 2.7-5.6 6a13 13 0 0 0 1.2 9.5c1.7 3.2 4 5.7 7 7.4 3 1.8 6.4 2 10.3.9a19 19 0 0 0 8.4-4.6c1.9-1.8 3.7-4.3 5.5-7.6 1.9-3.2 1.7-6.9-.5-11a29 29 0 0 0-9.7-10.5z"/><path fill="#EDEDED" d="M523 53.2l3.8.1h.4c1 0 1.8.3 2.7.7l2.2-5-2.3 5a5 5 0 0 1 1.9 1.2 9.2 9.2 0 0 1 .9 1.3l.6-.2-.6.2.6-.2-.6.2.2.8.2 1.7v.6c0 1-.2 2.7-.6 5a5.5 5.5 0 0 0 10.7 2 37 37 0 0 0 .8-8.7 32.9 32.9 0 0 0-1-5 12 12 0 0 0-1.2-2.5L540 48a16 16 0 0 0-5.6-4.2h-.1c-2.2-1-4.5-1.4-7-1.5V48l.4-5.5-4.6-.1a5.5 5.5 0 1 0 0 11z"/><path fill="#EDEDED" d="M542.7 62.5c-4.4-3.1-7.1-4.4-8-3.7S533 60 533 60.7l-.6 3a9 9 0 0 1-3 5.4c-1.5 1.1-3 1.6-4.3 1.4-1.2-.7-2.2-1.3-3.1-2-2 .6-3.7 2-4.8 4.5-1.1 2.5-1.2 4.6-.3 6.3l3.9 8c1.7 3.5 4 6.1 7 7.9s6.4 2 10.3.8c4-1.1 6.8-2.6 8.8-4.5 1.9-1.8 3.8-4.2 5.7-7.4 2-3.2 2-6.8-.1-10.8-2.2-4-5.5-7.6-9.8-10.8z"/><path fill="#B3B3B3" d="M521 77.5c-.5 2.7-.2 5.1 1 7.2 1.1 2.1 2.7 3.4 4.8 3.7 2 .3 4-.4 5.8-2 1.8-1.7 3-3.9 3.4-6.6.5-2.6.2-5-.8-7.1a6.3 6.3 0 0 0-4.6-3.6v5.1h-6.7v-2.4a11 11 0 0 0-2.9 5.7z"/><path fill="#EDEDED" d="M519.9 77.5c-.6 2.8-.4 5.3.8 7.4 1 2.2 2.6 3.4 4.8 3.7 2 .3 4.1-.4 6-2.2 1.8-1.7 3-4 3.6-6.8.6-2.8.4-5.3-.7-7.5a6 6 0 0 0-3.8-3.3l-1.6 2.5-3.8.6-1.1-1.6-.5.4c-2 1.8-3.2 4-3.7 6.8z"/><path fill="#9A141D" d="M179.6 204a20.5 20.5 0 0 0-11.6-11.6l-29-11.8a52 52 0 0 0-16 39.4l29 11.9a20.8 20.8 0 0 0 16.3 0c5.4-2.4 9.2-6.3 11.5-11.7 2.2-5.5 2.1-10.9-.2-16.3z"/><linearGradient id="n" gradientUnits="userSpaceOnUse" x1="218.1" y1="-420.4" x2="219.1" y2="-420.4" gradientTransform="rotate(21.8 -28172 -21581.2) scale(28.328)"><stop offset="0" stop-color="#ededed"/><stop offset=".3" stop-color="#ededed"/><stop offset=".3" stop-color="#bfbfbf"/><stop offset="1" stop-color="#bfbfbf"/></linearGradient><path fill="url(#n)" d="M165.5 208.6A214.3 214.3 0 0 1 97.1 159a181.5 181.5 0 0 1-38.8-69.3A9 9 0 0 0 41 95a199.6 199.6 0 0 0 42.7 76 232.3 232.3 0 0 0 74 53.7 9 9 0 1 0 7.7-16.3z"/><path fill="#E62C37" d="M180 203a22.4 22.4 0 0 0-12-10.6l-29-11.8a72 72 0 0 1-16 39.4 298.5 298.5 0 0 0 47.2 18.1c7.8-3.7 12-8.4 12.5-14l1-11.1c0-1.8-1.2-5.1-3.7-10z"/><path fill="#EDEDED" d="M56.4 82.7c2-1 3.9-2.2 5.5-3.6a20.9 20.9 0 0 0 7.6-16.8c0-3.1-.6-6.3-1.5-9.7a5.5 5.5 0 1 0-10.6 3c.8 2.6 1.1 4.9 1.1 6.7a13 13 0 0 1-.4 3.5c-.4 1.5-1 2.7-2 3.9-1.1 1.1-2.5 2.2-4.5 3.2a5.5 5.5 0 0 0 4.8 9.8zM31.5 73.3c-3.4-.4-6.5-1.4-9.5-3a33 33 0 0 1-8.5-6.3 5.5 5.5 0 0 0-7.9 7.6c3.5 3.5 7.2 6.4 11.4 8.5 4 2.1 8.5 3.5 13.1 4a5.5 5.5 0 1 0 1.4-10.8z"/><path fill="#EDEDED" d="M11 47.6a47 47 0 0 0 7 14.3c3 4.4 7 8.3 11.5 11.7a5.5 5.5 0 1 0 6.6-8.7 43 43 0 0 1-9.2-9.3 36 36 0 0 1-5.3-11 5.5 5.5 0 1 0-10.6 3z"/><path fill="#B3B3B3" d="M31.6 90.8a19 19 0 0 0 8.4 4.6c4 1.2 7.4.9 10.4-.9 3-1.7 5.3-4.2 7-7.4a13 13 0 0 0 1.2-9.5c-1-3.3-2.8-5.3-5.7-6-2.9-.8-5.3-3.3-7.2-7.7-1.9-4.4-5-5.1-9.3-2.2a29 29 0 0 0-9.7 10.5c-2.3 4.1-2.5 7.8-.6 11 1.8 3.3 3.6 5.8 5.5 7.6z"/><path fill="#EDEDED" d="M55.7 42.3l-4.7.1.5 5.5-.1-5.5c-2.4 0-4.8.6-7 1.5a16 16 0 0 0-5.6 4.2 20 20 0 0 0-1.7 2.3c-.5.8-1 1.6-1.3 2.6a33 33 0 0 0-1 5v1.6c0 2.1.3 4.4.8 7a5.5 5.5 0 1 0 10.7-2 26.9 26.9 0 0 1-.6-5.6 22.3 22.3 0 0 1 .5-2.5l-.7-.2.6.2-.6-.2.6.2 1-1.3c.4-.5 1-1 1.8-1.3l-2.3-5 2.2 5c.9-.3 1.8-.5 2.8-.5h.3l3.8-.2a5.5 5.5 0 1 0 0-11z"/><path fill="#EDEDED" d="M45.8 60.7c-.2-.7-.7-1.3-1.7-2-1-.6-3.6.7-8 3.8a32.4 32.4 0 0 0-9.8 10.8C24 77.3 24 81 26 84.1c2 3.2 3.8 5.6 5.8 7.4 1.9 1.9 4.8 3.4 8.7 4.5 3.9 1.2 7.3 1 10.3-.8 3-1.8 5.3-4.4 7-8l4-8c.8-1.6.7-3.7-.4-6.2-1.1-2.4-2.7-4-4.7-4.4l-3.1 1.9c-1.4.2-2.9-.3-4.4-1.4a9 9 0 0 1-3-5.4 61 61 0 0 0-.5-3z"/><path fill="#B3B3B3" d="M43.6 72.7a11 11 0 0 0-.9 7.1c.5 2.7 1.6 5 3.4 6.6a7.1 7.1 0 0 0 5.8 2c2-.3 3.7-1.6 4.9-3.7 1-2 1.4-4.5 1-7.2a11 11 0 0 0-3-5.7v2.4h-6.6v-5c-2 .3-3.5 1.4-4.6 3.5z"/><path fill="#EDEDED" d="M55.2 70.7l-.5-.4-1.1 1.6-3.9-.6-1.6-2.5a6 6 0 0 0-3.7 3.3 10.8 10.8 0 0 0-.7 7.5c.5 2.8 1.7 5.1 3.5 6.8 2 1.8 4 2.5 6 2.2 2.2-.3 3.8-1.5 4.9-3.7 1-2.1 1.4-4.6.8-7.4-.6-2.7-1.8-5-3.7-6.8z"/><path fill="#F33F4D" d="M433 13.2l-5.6-.3a31660572.3 31660572.3 0 0 0-100.7.2 5 5 0 0 1-1.8-.4c-5.9-2.8-12-4.8-18.2-6A109.9 109.9 0 0 0 263 8.2a72.8 72.8 0 0 0-12.8 5l-1.3.2-.7.1h-.8l-32.8.1a10931.8 10931.8 0 0 0-65.4 1c-1.5 0-2.6.4-3.5.8-1 .5-1.7 1.2-2.2 2a19 19 0 0 0-1.3 6.9c0 4.5 0 8.9-.2 13.3a29355.7 29355.7 0 0 0-.6 17.6c0 1.5.2 3 .5 4.4.4-.1.7-.3.8-.6l.1-.9v-1a142.4 142.4 0 0 1 .1.3c0 .9.3 1.5.7 2 .4.4 1 .7 2 .8 1 .1 2.2.2 3.9.1l44.9-.1 44.9-.2a8048.6 8048.6 0 0 1 127-.2c21.1 0 42.3-.2 63.5-.4h1c1.2 0 2.2-.2 3-.5.6-.3 1-.8 1.3-1.5.3-.7.4-1.7.4-3V20v-2c-.1-.6 0-1.2.1-1.8 0-1-.1-1.7-.6-2.2-.5-.5-1.2-.7-2-.8M143 46.9v0z"/><path fill="#1D1D1D" d="M418.5 106.6c0 .5 0 1-.3 1.5a59.3 59.3 0 0 1 .6 12.7v6a13.6 13.6 0 0 0-6-4.8 20.3 20.3 0 0 0-9.5-2 50.9 50.9 0 0 0-10.5.8c-1 0-1.9-.2-2.8-.7-.4-.2-.8-.2-1.1 0-.3.2-.6.5-.8 1a4 4 0 0 1-1 2.5l-3.9 4.8-1.7 2.1-1.6 2.2c-.5.8-.8 1.7-1 2.7.2.7.5 1.1.9 1.4.3.3.8.4 1.3.5h20a26.1 26.1 0 0 1 13.5 4c.4.3.8.8 1 1.3.3.6.4 1.3.4 2v1c.2.4.4.6.9.8l.7-1a8.6 8.6 0 0 0 .1-.3l-1.4 5.4c-.6 1.7-1 3.5-1.4 5.4 0 .5.2 1 .4 1.3.1.4.4.7.7.8.3.1.8 0 1.5-.2.3-.3.5-.5.6-.8l.4-1 .4-.9.5-1.2v-1.3c-.4-.6-.5-1.3-.5-2 0-.6 0-1.3.2-2a114.5 114.5 0 0 0 2.6-40c.4.5.8 1 1 1.5.4.5.6 1 .8 1.6a26.6 26.6 0 0 1 1.2 10.1v5a45.4 45.4 0 0 1-1.2 11.4 237.8 237.8 0 0 1-2 10.2c-.5 1.5-1 3-1.7 4.4l-.4 1.2a17.7 17.7 0 0 1-1 2.5c-.2.4-.2.9-.1 1.4l.5.5h.7c.5-.4.9-.9 1.2-1.5l.7-1.7a107 107 0 0 0 4-9.5v-1c.8-4.2 1.6-8.5 2.2-12.9.6-4.2 1-8.6 1.2-13v-1.3c0-.4.2-.8.6-1l2.8-2c.9-.6 1.8-1.1 2.9-1.5s2.1-.4 3.4-.3c.7.1 1.4 0 2-.4l.6-.6.2-4.2a178.2 178.2 0 0 1 0-8.4l.3-.1.1.1.2 5.3a139.2 139.2 0 0 0 0 6.7c.1.5.3 1 .6 1.3.3.3.8.6 1.5.6v-7.3-7.4c.1-1.1 0-2-.6-2.5-.5-.6-1.2-1-2.3-1a306.6 306.6 0 0 1-12.4-2c-.5-.4-1-.6-1.6-.7a2709.3 2709.3 0 0 1-23.2-2.1 108.2 108.2 0 0 1-10.7-1l-4-.3h-1.7a3 3 0 0 0-1.7.5c-.3.3-.3.5 0 .8l.8.4a742 742 0 0 0-28.4-1l-6.5.3a345.3 345.3 0 0 0-34.3 3.5 135 135 0 0 0-13.5 2.6l-1.3-.3a17 17 0 0 0-4.5-.7c-1.5 0-2.9.2-4.3.7-1.7.6-3.4 1-5 1-1.7 0-3.4-.5-5-1.3-1 0-2 0-2.9-.2h-2.8c-1 .2-1.8.6-2.6 1.3h-.6l-.6-.1h-1.5c-.7.1-1.1.4-1.2.9-.2.4 0 .9.3 1.4.6.7 1 1.4 1 2.2 0 .8 0 1.6-.3 2.4v.3c0 .1-.2.2-.3.1l-.2-.1a20.4 20.4 0 0 0-7.8-5.1c-1.5-.6-3-1-4.5-1.4-4.6-1.1-9.3-1.9-14-2.4a298.1 298.1 0 0 0-57.6 1c-3.3.4-6.7 1-10 1.6a60.6 60.6 0 0 0-11.4 3.8c-.5.3-1 .7-1.3 1.2a2 2 0 0 1-.5.8c-.5.7-.9 1.2-1 1.6-.3.4-.3.8 0 1.2.1.4.5.9 1 1.4a7 7 0 0 0 5.2 2.3l12 .5 12 .4a242.3 242.3 0 0 0 36.9-1.4l1.8.3-1 .6-1 .2a81 81 0 0 1-9.8 1.5 332.8 332.8 0 0 1-20.6 1c-3.6 0-7.1-.2-10.7-.5-9.1-.7-18.1 0-27 2.3-1.5.4-2.6 1.1-3.3 2-.7 1-1 2.3-1 3.8a128.6 128.6 0 0 0 0 7.7c.1.5.4.9.8 1.2.6 0 1-.1 1.4-.5l1-1a21 21 0 0 1 13.3-6.8c2.5-.3 5.1-.3 7.8 0 3.6.2 7.2.6 10.9 1a572.9 572.9 0 0 0 18.3 1.9c1.2.2 2.5.5 3.7 1 1 .4 2.1.5 3.1.4 1 0 2-.3 3-.9.7-.3 1.4-.8 2-1.2l1.8-1.5a405.6 405.6 0 0 0 14-15.5l-6 7.2-10.5 12.6a623.3 623.3 0 0 0-11.4 14.3c-.3.5-.5 1-.5 1.7.2.8.6 1.3 1.1 1.5.6.3 1.2.4 1.9.4 1.6 0 3.2 0 4.8-.3l4.7-.7 1.3-.7 1-1a342.2 342.2 0 0 0 4.8-5c-.2.4-.1.8.2 1.4.4.6 1 1 1.6 1.1s1.3.1 2 0a814.5 814.5 0 0 1 17-1.9 51.7 51.7 0 0 1 11.8.6c2 .5 3.8 1.2 5.6 2.3l1.2.5c.4 0 .8 0 1.3-.2l.5-.8.3-1 1.3-6.6a77 77 0 0 0 1-4.3l-1.6 9-2 9a79.2 79.2 0 0 1-6.2 15.8l-1.3 2c-.4.7-.8 1.4-1 2.2.3.5.6.8.9 1 .3 0 .6 0 1-.2l.8-.7c1.7-1.4 3.2-3 4.6-4.6 1.4-1.7 2.5-3.6 3.3-5.7.5-1.6 1.1-3.2 1.8-4.7l.5-1.2c.2-.5.5-.8.8-1 .4-.1.9-.1 1.5.1.4-.4.6-.9.8-1.5l.4-1.6c1-3.7 1.7-7.4 2.4-11.2l1.7-11.3c.6-3.8 1.4-7.5 2.3-11.3-.4-1-.5-2-.4-2.8s.4-1.7 1-2.3c.4-.7 1-1.1 1.9-1.3 1-.3 2-.3 2.8 0 1 .2 1.8.7 2.6 1.5.5.6.8 1.2.8 1.6 0 .5-.2 1-.5 1.4l-.7 1.4a173.2 173.2 0 0 1 4.1 21.8 159.3 159.3 0 0 0 4.8 19.4 54.6 54.6 0 0 0 15.4 23.9c2.2 1.8 4.6 3.4 7.2 4.7 2.6 1.3 5.3 2.3 8 3.2l8.4 2.1A123 123 0 0 0 401 181l1.7-.7a33.8 33.8 0 0 0 2.4-1.2c.3-.1.5-.4.7-.6.1-.3.2-.6.1-1l-.7-.2a5 5 0 0 0-1.6.3l-1.6.8a29.1 29.1 0 0 1-7.6 2.8 114.9 114.9 0 0 1-36.9 4 165 165 0 0 1-18.4-2c-3.2-.6-6.2-1.4-9.2-2.5a42.8 42.8 0 0 1-22.6-20.8 55.2 55.2 0 0 1-2.9-6.8c.4 1.2 1 2.3 1.7 3.5a182.3 182.3 0 0 1 5.2 5l.7.7c.3.3.6.4 1 .5.2 0 .6 0 1-.3.2-.4.2-.8 0-1a50 50 0 0 1-4-8.1l-2.8-7.4a70.1 70.1 0 0 0-4.3-9c-.2-.3-.6-.4-1-.4l-.7.4-.2-.4v-.4a9.8 9.8 0 0 0 0-.4l.1.6c0 .2.2.3.4.3l.6-.4c.5-.7.7-1.4.7-2.3-.2-2.2-.3-4.5-.3-6.8a118.6 118.6 0 0 0-.4-10v-3.1c.2-1 .4-2 .8-3a9 9 0 0 1 2-2.8c.2-.2.4-.5.5-.9l.1-1c-.2-.9-.2-1.6.1-2.3s.7-1.2 1.4-1.8c1.2-1.2 2.5-2.1 3.9-2.9a26 26 0 0 1 4.3-1.8 73.5 73.5 0 0 1 16.6-3.2c4-.4 8-.7 12.1-.8l15.6-.3a305.2 305.2 0 0 1 31.2 1.6l6.9 1a64.2 64.2 0 0 1 13.3 3.5 15.9 15.9 0 0 1 7.2 5.8l.4 1.4m1.9-11.6a4 4 0 0 0-1.4-.5 93.8 93.8 0 0 1 1 .2c.5.2 1 .5 1.4 1l-1-.7m-120 38.4a734.4 734.4 0 0 0 .1.3v-.3m-64-4.6l-.8.8a500.4 500.4 0 0 1 .7-.8z"/><path fill="#7F1018" d="M426 232.2c1-.5 1.8-1.2 2.6-2V229l-.9-.4h-1l-13 .5a237 237 0 0 1-22.1.2 439.2 439.2 0 0 0-12 0H330a8134.6 8134.6 0 0 0-98.9.5h-16.5l-16.5.1H160.8c-3 0-6-.2-8.9-.6-.6-.1-1 0-1.4.3-.3.3-.3.8 0 1.5.8.8 1.7 1.5 2.7 2.1l3 1.7 2.8 1.9a30 30 0 0 0 12.4 4.8c2.3.2 4.5.4 6.9.4 73.6-.4 147.2-.6 220.8-.6a46.6 46.6 0 0 0 14.7-2.3c2.3-.8 4.5-2 6.6-3.5l2.8-1.7c1-.5 1.9-1 2.8-1.7z"/><path fill="#A42731" d="M435 17.8c-.2.6-.2 1.2-.2 1.8v35.8c0 1.2-.2 2-.7 2.5-.5.5-1.3.7-2.4.7l-34.4.3c-18.6.2-37.3.2-55.9.2h-56c-18.6 0-37.3.1-55.9.3-13.7.2-27.5.3-41.2.2h-41.2c-1.1 0-2-.1-2.5-.3-.6-.2-1-.6-1-1.1a7 7 0 0 1-.3-2.5V34.5c-.3 2.6-.4 5.2-.4 7.8a596.8 596.8 0 0 1-.3 12.5 28.6 28.6 0 0 1-1 6.5c0 .6 0 1.2.3 1.7h2.7c.9 0 1.7 0 2.6-.2l2.7-.1h95a13.7 13.7 0 0 0 3.4-.4l1.1-.2h15.2l15.1.1h117a35 35 0 0 0 6.3-.6 373.5 373.5 0 0 0 17.2 0c1 .1 2 .2 2.9.1a82.5 82.5 0 0 1 11.4.6c.6 0 1.2-.1 1.8-.4 0-.7 0-1.4.2-2.1v-2.1c0-12.3-.2-24.6-.3-36.8a19.5 19.5 0 0 0-.6-4.7c-.4.4-.6 1-.7 1.6z"/><path fill="#801118" d="M420.3 61l-1.5.3h-1.5a155.6 155.6 0 0 1-11.2 0c-1.9 0-3.7 0-5.5.2h-121c-.4.2-.9.3-1.3.2H277a7418.7 7418.7 0 0 1-29.7.2h-99.6l-3 .2-2.8.8c-.2.1-.3.3-.3.4l.1.6a146 146 0 0 0 7.7 13c.5 0 .8-.3 1-.8l.3-2.6v-2.7-2.6c0-.9.2-1.5.4-2s.5-.8 1-1c.4-.3 1-.4 2-.5h13.6l11-.1h53.2a4545.1 4545.1 0 0 0 100.4-.6 5201 5201 0 0 0 62 0c2.2-.6 4.4-.6 6.7-.1h.8c1.6.3 3.2.3 4.8.2a113.3 113.3 0 0 1 17.7 0c.8 0 1.5.2 1.9.4.4.1.7.4.8.8a53.4 53.4 0 0 1 .3 5.1 26.7 26.7 0 0 0 .2 4.2c0 .3.1.5.3.7.2.2.6.2 1.1.1 1-1.4 1.8-2.8 2.7-4.3a298.1 298.1 0 0 0 4.5-7.4c.2-.5.3-1 .2-1.8-.9-.2-1.8-.4-2.7-.4H431l-1.5-.3h-1.7c-.5 0-1 0-1.6-.2h-5.8z"/><path fill="#E02430" d="M149.5 77c.3.7.5 1.5.5 2.3l-.5 14.4c.3.4.7.6 1.2.6l1.4-.1a36 36 0 0 1 7.4-.7 28 28 0 0 0 3.4-.4c1.1-.2 2.3-.2 3.4-.2.3 0 .6 0 .9-.2a246.5 246.5 0 0 1 14-1.2h1l1.2-.1.9-.6-.6-.8c-.3-.2-.5-.3-.8-.3h-1c-.9-.1-1.5-.2-1.9-.4-.4 0-.6-.3-.7-.7v-2a1108.4 1108.4 0 0 1-.1-12.5c0-.7-.2-1.3-.5-2l-.7-.5a6 6 0 0 0-1.3-.2h-18.3c-1.3 0-2.5 0-3.6.3-1 .2-2 .6-2.8 1.3-.9.8-1.5 1.8-1.8 3.3h-.2l-.5.7z"/><path fill="#9C171F" d="M149 126l-.2 9.8c-.3 14.1-.4 28.2-.5 42.3-.1 14.1 0 28.2.4 42.3v3.6a19 19 0 0 0 1.8 7.1c0-.5 0-1 .3-1.2.2-.2.6-.2 1.3 0l2 .5c.6.2 1.3.2 2 .2h22.4c.3-.7.4-1.4.3-2-.2-.6-.5-1.2-1-1.7-.7-.3-1.2-.4-1.8-.4H157a10 10 0 0 1-3-.4c-.7-.2-1.2-.6-1.5-1.2a60.5 60.5 0 0 1-1.6-10.7l-.1-7.8a3521 3521 0 0 1-.1-65c0-2.7.2-5.3.6-8a21.6 21.6 0 0 0-1.8-10c-.5.3-.7.6-.8.8v1l.1.8z"/><path fill="#9B161E" d="M427.7 141.1l.2 16 .3 15.8c.3 13.3.2 26.6-.4 40l-.2 4a80.1 80.1 0 0 1-1 7c-.4.6-.9 1-1.5 1.3-.7.2-1.7.3-3 .3h-9.5l-9.5.1a2 2 0 0 0-.8.3l-.6.6a14.6 14.6 0 0 0-.6 3.6h7l6.8-.4a80.4 80.4 0 0 1 10.6 0l1.8-.6c.3-.1.6-.2.8 0l.3.4.2.7c.6-1.2 1-2.5 1.2-3.8a32.5 32.5 0 0 0 .5-8 1530.4 1530.4 0 0 0-.5-78l-.2-16.2.2-1c0-.4-.2-.8-.7-1.2a25.7 25.7 0 0 0-1.8 9.5l.2 4.8.2 4.8z"/><path fill="#99151E" d="M415.5 62.8l-4.8.3a77 77 0 0 1-9.6.3c-.4.5-.7 1.1-.8 1.8V67l.1 2c.1 1.8 1.2 2.7 3.2 2.8a276.6 276.6 0 0 1 18.4.5c1.2.1 2 .3 2.7.6.6.3 1 .8 1.3 1.4s.4 1.5.4 2.7v13.7c.1.7.3 1.4.7 2h1.6l-.3-14.3c0-1 .1-2 .5-3-.4 0-.6-.2-.7-.4l-.2-.8v-.7-7.7c0-1.6-.7-2.4-2.3-2.4l-5.1-.3-5.1-.3z"/><path fill="#5A5A59" d="M137.3 99.5c-.9.3-1.5.2-1.8-.2a3 3 0 0 1-.5-1.7V97c0-.3 0-.4-.2-.4-.4 0-.7 0-.7.3v16.4c0 1.3.2 2.4.8 3.5a9 9 0 0 0 2.2 2.8 9 9 0 0 0 3.3 1.6c.1-.2.2-.4.1-.6l-1-1.6v-.2c-.2 0-.2-.2-.2-.2l.3-.2h.8l.7.3 1 .2 1 .6 1 .8 4.8 5.7.1-.7v-.7l.4-.7c.4 1.6.8 3.2 1 4.7.4 1.6.5 3.2.5 4.7a59 59 0 0 0 2.2 15.3c.2.4.4.8.8 1.1.4-.1.7-.3.8-.5l.1-.8-.1-.8c-.7-3-1.2-6.1-1.6-9.2a6133.4 6133.4 0 0 0-1.7-12.2c-.2-1-.5-1.9-1-2.7-.4-.7-1.1-1.2-2-1.7.6.3 1.2.3 1.8 0 .6-.2 1-.7 1.3-1.6a10.5 10.5 0 0 0 0-4c0-1-.6-1.5-1.5-1.8l-3-.9-2.9-1c-1-.2-2-.4-3-.4s-1.7-.2-2.1-.8c-.5-.5-.7-1.2-.7-2.1l-.2-4.6c0-1.6.1-3 .4-4.5l-.5-.5h-.7z"/><path fill="#4E4D4C" d="M433.1 112.8a6 6 0 0 0-2.4 2.3c-.1.2-.3.2-.5.3h-.6c-.7 0-1.1.1-1.3.5-.2.3-.3.8-.3 1.4l.1 4.6c0 1.5-.1 3-.4 4.6-.5 2-.8 4-1 6l-.8 6.3-1.2 6c.4.3.8.3 1.2 0 .7-2.2 1.2-4.4 1.4-6.7.2-2.2.3-4.5.3-6.7 0-1.5.1-3 .4-4.5l1.3-4.8a19.3 19.3 0 0 0 .3 2l3.3-3.6.9-.6 1.2.1c1 .4 2 .5 3.2.2a8 8 0 0 0 5.1-4c.5-1 .7-2 .7-3.2-.6-.4-1-.9-1.3-1.5a5 5 0 0 1-.2-1.9c-.4 0-.6.2-.7.3a1 1 0 0 0-.2.6 24 24 0 0 1-.3 1.4c0 .2-.3.3-.7.1h-1.2a35 35 0 0 0-3.3.1c-1 .1-2 .3-3 .7z"/><path fill="#FEB0CE" d="M190.4 13.6c-5 .2-10 .2-14.9.2a2212.8 2212.8 0 0 0-31.3.2c-.6.3-1 .6-1.3 1.1a13.7 13.7 0 0 0-1 4.6l-.1 2.4v9.4c0 3.1 0 6.2-.2 9.3-.2 3.7-.3 7.3-.2 11a396.4 396.4 0 0 1 .1 11.5l.2.5.2-1v-3.3a3744.3 3744.3 0 0 1 1-36.3c0-2 .3-3.5.8-4.6a5 5 0 0 1 2.5-2.5c1-.5 2.6-.9 4.6-1 3.3-.4 6.7-.5 10-.5a1000.4 1000.4 0 0 0 30-.6 3950.5 3950.5 0 0 1 56.7-.3c.4 0 .9-.1 1.4-.4a78 78 0 0 0-2.7-.1c-6.2 0-12.4.1-18.6 0H209l-18.6.4z"/><path fill="#E9E8EB" d="M137 100a43.7 43.7 0 0 1 13-2l3.7-.3c1.2-.1 2.3-.4 3.5-.7 1.1-.4 2.2-1 3.3-1.8.6-.4 1.2-.7 2-.9l2-.2 2.3-.2 1.4-.1 1.5-.5a3 3 0 0 0 1.2-1l-2.1-.3c-.7 0-1.4.1-2 .3h-.3a57 57 0 0 0-3.4.4l-3.5.3-8.3 1a132.4 132.4 0 0 0-13 2A6 6 0 0 0 136 97l-1 .5c-.5.4-.7.8-.7 1.3 0 .4.2.8.5 1.2.3.4.7.6 1 .5a3 3 0 0 0 1-.6z"/><path fill="#8E8B8C" d="M136 97.1a78.3 78.3 0 0 1 15.7-2.8l7.9-1.1c.2 0 .3-.2.2-.4-1.2 0-2.4 0-3.5.2l-3.4.4-3.4.3a116 116 0 0 0-13.2 2c-.3.3-.4.8-.2 1.4z"/><path fill="#242424" d="M140.3 120.8v.4c.6.2 1 .3 1.4.2l1.2-.5a6 6 0 0 1 1.3-.6c0-.5 0-.8-.3-1l-.8-.5c-.4 0-.6-.2-.8-.5l-1.2 1-.8 1.5z"/><path fill="#A92933" d="M316.7 13.1a86.4 86.4 0 0 0-58.2 0h58.2z"/><path fill="#191919" d="M302 110.6l-.3 3-.3 2.8v3a124.2 124.2 0 0 1 .4 17.2l.6.4.4.6a18 18 0 0 0 1.2 3.3 89.9 89.9 0 0 0 3.1 6c.5 1.1.9 2.2 1.1 3.4l.5 1.4.7 1.5 1.3 3.2a9434.6 9434.6 0 0 0 3.1 6.3c0 .4.1.8.3 1.1l.7 1a35.2 35.2 0 0 0 18 13.8 82.3 82.3 0 0 0 24.1 4 187.6 187.6 0 0 0 15.3-.5 24.7 24.7 0 0 1 5-.5c.5 0 1.1 0 1.7-.2l3.1-1.3c1.5-.7 1.9-1 1.2-1.1l-2.3-.1h-2l-1.6.2a98.9 98.9 0 0 1-35.4-.8 39.3 39.3 0 0 1-27.6-19.4c-2.2-4.5-4-9.3-5.4-14.1-.3-1.3-.3-2.2 0-3 .3-.7 1.1-1.3 2.3-1.8a29.7 29.7 0 0 1 8.4-2.2c2.3-.4 4.7-.5 7-.5s4.7.2 7 .4l7 .4 8.4.5c2.7.2 5.5.2 8.3.2.7 0 1.3-.2 2-.4.6-.2 1.2-.6 1.7-1a5 5 0 0 0 1-1l.8-1 8.2-10.8a4016.3 4016.3 0 0 1 20.3-25.1c.2-.3.3-.6.3-1 0-.3-.3-.7-.8-1a23.8 23.8 0 0 0-9-2.5 196.5 196.5 0 0 0-34.2-1c-.8 0-1.5 0-2.2-.2-.7-.2-1.4-.3-2.1-.2a231.8 231.8 0 0 0-16.6 1.5 88.8 88.8 0 0 0-12.5 3c-1.5.5-2.8 1.1-4.1 1.9-1.3.7-2.5 1.7-3.6 2.8l-1.2 1.5c-.3.6-.3 1.2-.1 1.9l-.5 1.3-.6 1a3 3 0 0 1-1.3.8c-.3 0-.5.2-.6.5l-.2.8z"/><path fill="#2C2C2C" d="M416.6 142.3c-.3-.6-.7-1.2-1.3-1.6-.6-.4-1.2-.8-1.8-1a24.9 24.9 0 0 0-6.6-2.4 33 33 0 0 0-7-.7h-19.3c-.4-.1-.7-.3-1-.6-.2-.3-.3-.7-.2-1.3-.6 0-1 .1-1.4.4l-.8 1.1-1 1.5v-.5c0-.3-.2-.6-.6-1H373l-2.5.3H368c-.7 0-1.4-.2-2-.4-.5-.2-1-.6-1.3-1.2-.6-.2-1-.2-1.3 0-.3.1-.6.4-.7.7l-.7 1a1922.6 1922.6 0 0 1-20.8 27.4c-.2.3-.3.7-.2 1.2.2.5.6 1 1 1.2l1.6.5a78.8 78.8 0 0 0 42.5.6l9.7-2.8a246.9 246.9 0 0 1 12.1-3.3c.4 0 .7.1 1 .5.2.3.3.6.1.8l-.6 1c-.2.3-.3.6-.3 1s0 .7.5 1c.5 0 .8-.1 1.1-.4l.7-1a57.6 57.6 0 0 0 4.3-8.1 48.8 48.8 0 0 0 2-6.4l.4-1.7c.1-.6 0-1.2-.2-1.8-.3-.2-.5-.5-.5-.8-.1-.2 0-.5 0-.8.4-1 .4-1.7.1-2.4m-41.4-3.5l.2-.3-.6.8-2.4 3a224.3 224.3 0 0 1 2.8-3.5m-12.5 15.5l.4-.5a137.6 137.6 0 0 0-.4.5z"/><path fill="#232323" d="M219.7 124.5a4 4 0 0 1-2.4-.1c-2-.8-4-1.3-6-1.5l-6-.6a608.4 608.4 0 0 0-21.8-2.3c-3.2-.3-6.2-.3-9 .1s-5.6 1.3-8.1 2.7a22.6 22.6 0 0 0-6.8 6.1c-.4.5-.7 1-.7 1.7v1.7a198.6 198.6 0 0 0 2.5 16c.2.5.5.8 1 1a21.3 21.3 0 0 1 10.2-3.2 41 41 0 0 1 5.3 0l10.2.5c3.4.1 6.8.4 10.2.7 1.2.2 2.5.2 3.7.1 1.2 0 2.4-.3 3.6-.8l1.5-1.2 1.2-1.5 8.3-10.6a277.2 277.2 0 0 1 9.3-11.7c0-.3 0-.5-.2-.9-.7.4-1.4.8-2 1.4l-2 1.4c-.6.5-1.3.8-2 1z"/><path fill="#383838" d="M258.3 160.9c1-.3 2-.6 3-.7 1-.2 2-.1 3.1.2a7 7 0 0 0 1.8-2l1-2.5a103.7 103.7 0 0 1 1.7-5 55.4 55.4 0 0 0 .6-2.4c0-.4-.3-.8-.6-1.2a6 6 0 0 0-2.4-1 141.2 141.2 0 0 0-24.8.2 255.8 255.8 0 0 0-10.9.6H227a16.3 16.3 0 0 1-4.8-1 2.8 2.8 0 0 0-1.2 1.1c-2 2.1-3.7 4.3-5.5 6.4l-.2.2 1-1.2a686.6 686.6 0 0 1 8-9.4V142l-5 .7a39 39 0 0 1-5.3.3c-.7 0-1.3-.1-1.7-.4-.4-.3-.6-.8-.5-1.6-.5 0-1 0-1.2.4l-.7.9a2044 2044 0 0 0-16.6 20.9c-.2.3-.2.7 0 1.2.4.5.9.9 1.5 1.1.6.3 1.2.4 1.8.5l2 .3a82 82 0 0 0 35.1 1.2c4.2-.7 8.4-1.7 12.5-2.9l12.2-3.6z"/><path fill="#242424" d="M139.6 99.3c-.4.1-.8.4-1.1.8l-.7.6c-.2.2-.3.5-.3.9a51 51 0 0 1 0 6.4c0 1 .2 2.1.4 3.2 0 .5.2 1 .5 1 .3.3.7.4 1.2.4l3 .4c1 .2 1.9.4 2.9.4l1.1.5 1 .8c.3.3.7.4 1.2.3.8-.2 1.4-.1 1.8.3.3.3.5 1 .4 1.8v2.4l-.2 1.1c-.2.3-.6.6-1 .8s-1 .2-1.2 0c-.3-.1-.5-.3-.7-.6l-.5-.6-.7-.6h-1c.3.7.7 1.3 1.1 1.8.5.5 1 .9 1.5 1 .7.4 1.3.8 1.6 1.3.3.5.6 1 .7 1.6l.3 1.8a325.4 325.4 0 0 1 2.3 16.5l.5 2 .5 2c0 .6 0 1.3-.2 2a1 1 0 0 0-.3.7v.7a67.1 67.1 0 0 0 5.8 14.5c.1.4.3.6.6.9.2.2.6.2 1 .2.3-.4.3-.8.2-1.2l-.3-1.1-1.3-3.7a169.3 169.3 0 0 1-2.1-5.6c0-.3 0-.6.2-.8.2-.3.5-.4.8-.4l1 .2.8.4c.2 0 .5 0 .7.2h.7c.2 0 .4-.3.6-.6a15954 15954 0 0 0-2.8-13.4 92.9 92.9 0 0 1-1.5-12.6c-.2-2-.2-4-.2-6a28.6 28.6 0 0 1 1.7-9c.3-1.1.5-2.2.5-3.3a6 6 0 0 1 1-5.2c.7-1 1.5-1.8 2.4-2.4l3-1.8c2.2-1 4.5-1.8 6.8-2.4 2.2-.6 4.5-1 6.9-1.5 6.6-1 13.2-1.7 20-2.2a401.2 401.2 0 0 1 36.4-.3 179.7 179.7 0 0 1 23 2.8c2.3.5 4.4 1.2 6.4 2.1 2 1 4 2.2 5.8 3.8l.5.3h.6c.6-.8 1-1.5 1-2.2 0-.7-.4-1.4-1.2-2.1a6 6 0 0 1-.6-.7c-.2-.2-.3-.4-.2-.7.1-.2.4-.4 1-.6 0-.4-.2-.7-.4-.8l-.7-.4a187 187 0 0 1-3.5-.8l-2.7-.5a76 76 0 0 0-13.3-1.9 88.2 88.2 0 0 1-7.5-1h-3.5a10 10 0 0 1-1.7-.4 2709 2709 0 0 0-14-.6l-1-.1c-.4 0-.7-.2-1-.3-2-.1-4.1-.2-6.1-.1h-6.1a60.7 60.7 0 0 0-9.8.3l-4.8.3c-2.6 0-5.2.2-7.7.5L177.2 92a131 131 0 0 0-18 3.4c-1 .5-1.9 1.2-2.6 2.1l-.9.7a2 2 0 0 1-1 0c-1.5-.3-2.9-.4-4.2-.3-1.4 0-2.8.2-4.1.4a176.2 176.2 0 0 1-6.8 1z"/><path fill="#060606" d="M413.7 101.6a58.2 58.2 0 0 0-14.9-5.2c-3.5-.6-7-1-10.5-1.4l-10.5-1h-2.4c-.9 0-1.7 0-2.5-.3l-2.2-.2h-23.2l-1.2.1c-.4.1-.8.3-1.1.6.2.3.5.4.8.5h9.4a716.9 716.9 0 0 1 17 .4 141.8 141.8 0 0 1 12.9 1.3 38.8 38.8 0 0 1 6.5 1.7l.7-.1c.2 0 .4 0 .5.3.2.6 0 1.1-.5 1.4l-1 .4-1 .5a42 42 0 0 1-2 2.2 26.8 26.8 0 0 0-3.4 5c-.2 1-.5 1.8-.8 2.6a54.7 54.7 0 0 0-1.8 5c-.3 1.9 0 3.4 1 4.6.9 1.2 2.3 1.8 4.3 2l.3-.3.5-.9c.2-.2.4-.4.7-.4s.6.2 1 .7c.4.3.8.5 1.2.5h1.3l7.4-.8c2.4-.1 5 0 7.4.3 2.4.4 4.6 1.2 6.5 2.4 1.9 1.2 3.6 2.7 5.3 4.5a142.2 142.2 0 0 1 0-7.2 39.7 39.7 0 0 0-1.3-14 13.4 13.4 0 0 0-4.4-5.1z"/><path fill="#E02430" d="M411.2 71.1c-.4.2-.9.3-1.3.3h-3.7a58.3 58.3 0 0 0-4.8.2c-.3.5-.5 1-.5 1.6V85l-.2 2.3c-.1.5-.4 1-.8 1.2l-2.2.9-.6.4c.8.3 1.5.4 2.3.5h2.3l2.3.2a704.8 704.8 0 0 0 23.3 1.8v-.3a81.8 81.8 0 0 1-.2-11.4V75c0-1.7-.9-2.7-2.5-3a55.6 55.6 0 0 0-13.4-.9z"/><path fill="#2D2C2C" d="M270.4 139.4l-.8-.5c-1.8-1.1-3.7-2-5.6-2.4a52.7 52.7 0 0 0-13-.6 491.9 491.9 0 0 1-18.8 2c-.4-.3-1-.7-1.3-1.3-.5 0-.9 0-1.2.3l-.8.8a33 33 0 0 0-4.7 5.6l-.9 1c-.3.2-.6.4-.8.8-.2.3-.3.7-.2 1.2a3 3 0 0 0 2.6 1.8l1.5-.1 1.4-.1a132 132 0 0 0 16.3-.8 332 332 0 0 1 20.5-.3c1.5.1 3 .4 4.4 1a8 8 0 0 0 2.1-4c.3-1.3.4-2.8.3-4.3h-1z"/><path fill="#0C0C0B" d="M159.6 109.6a112 112 0 0 1-2 7.8c-.2 1.4-.4 2.7-.4 4 0 5.7.4 11.2 1.3 16.7s2 11 3.5 16.4c-.2.3-.3.7-.3 1 0 .4.2.7.3 1 1 2.3 2 4.5 3.2 6.7a36.4 36.4 0 0 0 10.2 11.4 34.3 34.3 0 0 0 12 4.8c.8 0 1.7-.2 2.6-.7v-.7c-.3-.4-.8-.7-1.3-1-.5 0-1-.3-1.6-.4a33 33 0 0 1-22.5-22.2l-.8-2.7-1.3-2.6a85.4 85.4 0 0 1-2.9-20.2c-.3-1-.5-2-.5-3l.1-3.1v-3.1a4 4 0 0 1 1.5-3.8c.6-.4 1.2-.7 1.9-.8a385.7 385.7 0 0 0 10.6-2.1c1.7-.3 3.5-.5 5.4-.5l7 .2a251.1 251.1 0 0 0 18 .3 117 117 0 0 0 17.2-1l6.4-.5c1 0 2-.3 3.2-.6a394.6 394.6 0 0 1 4-1.3c.2-.1.3-.4.2-.9 0-.3-.2-.5-.5-.5h-4.9a192.9 192.9 0 0 1-26.2 1.5 141 141 0 0 1-15-.5 141 141 0 0 0-11.2-.2l-3.7-.3h-3.6c-.4 0-.7 0-1-.2l-1-.3a6.3 6.3 0 0 1-3.2-3c-.2-.5-.2-.8 0-1l1-.5c.3-.2.6-.4.7-.7v-.3l-.2-.3c-1 0-2 .4-2.8 1-1 .8-1.7 1.7-2.3 2.7-.6 1.1-1 2.3-1 3.5z"/><path fill="#A9A8A8" d="M285 110.6a31 31 0 0 0-2.2 9l-.7 4.6c-.5 2.7-1 5.4-1.3 8a105.7 105.7 0 0 1-3.6 16c-.4.3-.7.7-.9 1.1a58.5 58.5 0 0 1-1.2 3.3l-.7 2a199.7 199.7 0 0 0-2.6 5.8l-1 3a99.3 99.3 0 0 1-.5 6.4 6.3 6.3 0 0 1-1.7 3.6c-1 .8-2.2 1.3-3.7 1.5l-2 .1c-.7 0-1.4 0-2 .2l-2.2 1.1-2 1.4c-.6.5-1.2 1-2 1.3-3.1 1.7-6.4 3-9.7 4a90.4 90.4 0 0 1-11.6 2.3c-.4.1-.8.2-1.1.5a2 2 0 0 0-.8 1c0 1 .2 1.6.4 2.1.2.6.6 1 1.1 1.1.5.3 1.3.4 2.2.4a782.3 782.3 0 0 0 18.8.2h1.4c.4 0 .8-.3 1.2-.7l-.1-.3-.4-.2s0-.2.2-.3c2.9-1.4 5.5-3.2 7.8-5.4 3-3 5.6-6.1 7.6-9.7a64 64 0 0 0 7.6-20c.7-3 1.4-6 1.9-9l1.5-9 .7-5.3c.3-1.7.7-3.4 1.3-5 .5-1.7 1.4-3.2 2.6-4.7l.2-.8.1-5.7c0-2 0-4-.3-5.8-.5-.3-1-.4-1.2-.3-.3 0-.5.2-.6.5a9 9 0 0 0-.5 1.7z"/><path fill="#9A151E" d="M356 186.7c-5.3-.3-10.5-.9-15.7-1.7a27 27 0 0 1-6 3c-2 .8-4.3 1.2-6.6 1l-1.2.1c-.4.1-.6.4-.7 1l1 1 1.4.4c3 1 5.8 1.7 8.8 2.2a129.5 129.5 0 0 0 42.7-.5c1-.2 1.8-.5 2.6-1l.5-.7a640 640 0 0 0 .2-4.1c-.1-.7-.3-1.4-.7-2a116.7 116.7 0 0 1-26.4 1.3z"/><path fill="#F33F4D" d="M401.5 71.6c-.4-.4-1-.7-1.5-.7l-1.6-.1h-13.8c-1 0-2 0-3 .4-.3.1-.6.4-.7.7a51 51 0 0 0-.4 7.8l.2 7.8c0 .6.3 1 .8 1.5.7.3 1.3.6 2 .6.7.1 1.4 0 2.2-.2a1398 1398 0 0 0 12.9.5c1.2.2 2 0 2.4-.4.5-.5.7-1.4.6-2.6a192.7 192.7 0 0 1 0-15.3z"/><path fill="#535352" d="M415 169.2c0-.3 0-.7-.5-1-.4-.4-.8-.6-1-.4a3 3 0 0 0-1 .7 5 5 0 0 1-1 1c-.5.4-1 .8-1.3 1.3l-1.4 1.3c-.4.5-1 .7-1.7.9a1 1 0 0 1-.8 0l-.8-.5c-.4 0-.7 0-1 .3l-.7.3a32 32 0 0 0-2.6 1.3l-1.3.4a8 8 0 0 1-.9 0c-.5.1-1 .2-1.3.4l-1.4.5H395a21.6 21.6 0 0 0-5.4 1.9c-.1.6-.3 1-.6 1s-.5 0-.8-.2l-.9-.2-1 .1c-.3.2-.6.5-.7.9 0 .6 0 1.1-.3 1.4s-.6.4-1 .4l-1.3.2a98.3 98.3 0 0 1-19.8 2.1l-10 .2a63.1 63.1 0 0 1-24.6-5 36.6 36.6 0 0 1-16.3-13.6 117 117 0 0 1-7-11.5 94 94 0 0 1-2.4-6.6l-.5 1 .2.9a64.2 64.2 0 0 0 5.8 14.4 41.5 41.5 0 0 0 26.2 19.7c6.5 1.7 13.1 2.7 19.8 3a140.5 140.5 0 0 0 41.2-4.3 64.6 64.6 0 0 0 14.3-6.6c1.3-1 2.5-2.2 3.5-3.6l1-1 .6-1z"/><path fill="#30302F" d="M356.2 184l10-.4a109.9 109.9 0 0 0 19-2.2c.8 0 1.3-.5 1.5-1.3l-.1-.5-.5-.2c-.2 0-.4-.2-.4-.3a3374 3374 0 0 0-9.4 1.6 45.5 45.5 0 0 1-6.5.9 156 156 0 0 1-15.4.2 87.4 87.4 0 0 1-18.7-3 46.4 46.4 0 0 1-12.7-6.1c-1.8-1.5-3.5-3-5-4.7l-4.2-5.3-1-.7c-.4-.3-.8-.5-1-.8a44 44 0 0 1-2.6-2.5 17 17 0 0 0-2.6-2.3 41.3 41.3 0 0 0 18.3 21c4.9 2.6 10 4.3 15.2 5.3s10.6 1.4 16 1.2z"/><path fill="#A9A8A8" d="M337.5 187.5c1-.6 2-1.4 2.9-2.5l-7.5-1.9a45 45 0 0 1-15.7-7.9c-.7-.4-1.5-.7-2.2-.8h-2.3l-2.3.1c-.6 0-1.1 0-1.6-.2-.5 0-.9-.3-1.2-.6a3 3 0 0 1-.5-1.6c0-.2 0-.3-.2-.4a.9.9 0 0 0-.3-.4c-.5.5-.9 1-1 1.7-.2.6-.2 1.2 0 1.8.3.6.7 1 1.3 1.3l1.6.8 1.3 1.2c1.8 2.7 4 5 6.4 6.8 2.4 2 5 3.6 7.8 5 .3.2.7.2 1 .2.3 0 .6-.1.9-.4a53.5 53.5 0 0 0 8.2-.8c1.2-.3 2.3-.7 3.4-1.4z"/><path fill="#A9A9A9" d="M289.8 108.1a52.2 52.2 0 0 0 0 12.1c0 .3.2.5.4.8 1 .7 2 1.6 2.5 2.6s1 2.2 1.3 3.5a154.2 154.2 0 0 1 1.9 10.4c.5 3.3 1 6.6 1.7 9.9a122.9 122.9 0 0 0 5.6 19.3 27.3 27.3 0 0 0 1.7 3.4l.5.6.5.2c.2 0 .4-.1.7-.5a24 24 0 0 0-.3-9.2 87.8 87.8 0 0 1-7-20.2 142.2 142.2 0 0 1-3.1-17.4c-.3-2.3-.7-4.5-1.2-6.8-.5-2.2-1.1-4.5-2-6.6-.3-1.3-.7-2-1.2-2.4-.5-.3-1.1-.2-2 .3z"/><path fill="#51504F" d="M413.3 99.7a21 21 0 0 0-4-1.8 140 140 0 0 0-29.9-4.7 417.7 417.7 0 0 0-44 .3 122.2 122.2 0 0 0-20.7 3.5c-1.7.5-3.3 1.2-4.8 2.1s-3 2-4.2 3.5c-.5.5-.9 1.1-1 1.7-.2.6 0 1.2.5 1.9a9.8 9.8 0 0 1 3-4.4c1.5-1 3-1.9 4.7-2.5a66.4 66.4 0 0 1 21.4-4.5 199 199 0 0 1 14.2-.6c6.7-.4 13.5-.4 20.3 0h4.3c.5.2 1 .3 1.7.3h1.6c.5-.1 1 0 1.6.1a7 7 0 0 1 2 .2l2 .4a179.9 179.9 0 0 1 19 2.4l5.2 1.3c1.7.6 3.3 1.2 4.8 2a15.2 15.2 0 0 1 7.3 7.4c.6-.1.9-.3 1-.5.2-.3.2-.5.2-.9l-.2-.9a10.4 10.4 0 0 0-2.4-3.5c-1.1-1.2-2.3-2-3.6-2.8z"/><path fill="#535352" d="M159.6 109.6c.6-1.5 1.4-3 2.4-4.2a10 10 0 0 1 3.9-3c.4-.5.9-.9 1.4-1.2l1.7-.7 1.7-.5a96 96 0 0 1 13.2-3.3c4.4-.7 8.9-1.3 13.4-1.6l13.5-.8c7-.3 14-.3 21 0a183.2 183.2 0 0 1 26.5 2.9c1.8.3 3.5.8 5.3 1.4a17.5 17.5 0 0 1 9.1 6.7l.4.2h.4c.2 0 .3-.2.4-.4v-.5l-1-1.7a17 17 0 0 0-5.2-4c-2-1-4-1.7-6.2-2.3-4-1-8-1.8-12-2.2a241.2 241.2 0 0 0-40.3-1.2l-8 .5a126.6 126.6 0 0 0-30.2 4.2 27.7 27.7 0 0 0-8.7 4.3c-.8.6-1.5 1.3-2 2-.6.8-1 1.7-1.1 2.6-.2 1 0 1.9.4 2.8z"/><path fill="#302F2F" d="M275.7 152c0-.5.3-.9.7-1.3a6 6 0 0 0 .8-2.5c-.3-.2-.4-.4-.4-.7l.1-.8c0-.3 0-.6-.3-.9l-1.7 2.9c-.6 1-1 1.9-1.3 3a27.4 27.4 0 0 1-10 13.9c-.3 0-.5-.2-.8-.5h-.8l-.6.7-.5.6a30.5 30.5 0 0 1-12 9.6c-2.4 1-4.9 2-7.4 2.7a97 97 0 0 1-21.3 3c-.8 0-1.5.3-2.2.6 0 .7.1 1.3.4 1.6l1.3.5 1.4.1a80 80 0 0 1 9.8 0 48.8 48.8 0 0 0 15-2.8 40.4 40.4 0 0 0 18.5-11.7 48.8 48.8 0 0 0 8.7-13.7c.3-.7.8-1.3 1.3-2 .4-.2.7-.6.9-1l.4-1.4z"/><path fill="#0E0D0C" d="M420.5 107.5v.5a55.8 55.8 0 0 1 1 16.8l-1 12.7a115 115 0 0 1-2.6 13.7c0 .4.1.7.4 1 .2.4.5.6 1 .8h.6c.5.2.8.1 1 0 .2-.2.3-.5.3-.8v-.8a121.6 121.6 0 0 0 4.5-26.2c0-1-.4-2-1-3 0-.2-.1-.5 0-.8 0-.3 0-.6.2-.9.3-1.1.4-2.3.3-3.4a121.1 121.1 0 0 0-1.4-6.6c-.2-.6-.4-1.2-.8-1.7a9.3 9.3 0 0 0-1.9-1.8l-.5.1-.1.4z"/><path fill="#707070" d="M416.8 93.7l-1.8-.2a244.6 244.6 0 0 0-29.3-3.7c-1.8-.4-3.6-.8-5.4-1a71 71 0 0 0-5.4-.3l-5.4-.2a147.3 147.3 0 0 0-18.8.2 440 440 0 0 1-11.4.4l-2 .3c-.7 0-1.3 0-2-.3h-2.2a45.5 45.5 0 0 0-5.3.6c-.3.1-.4.4-.3.7 0 .3.2.5.5.6h.3a175 175 0 0 0-17.2 2c-.8 0-1.5.2-2.3.3-.8.2-1.5.4-2.1.9-.7.4-1.2 1-1.6 1.8l.2.4a199.5 199.5 0 0 1 25.3-4 314 314 0 0 1 85.6 2c1.3.3 2.5.7 3.7 1.3 1.2.7 2.2 1.6 3.2 2.9a5.8 5.8 0 0 0-1.4-3.3 5.4 5.4 0 0 0-3.2-1.3 29 29 0 0 0-1.7-.1z"/><path fill="#767676" d="M241 105.1l3.3-3.7 3-3.8a8 8 0 0 1-.6-.5l-21 23.6-.2.6-.3.5a205 205 0 0 0-12.9 16c-2 2.7-4.2 5.4-6.4 8-2.6 2.8-5 5.7-7.4 8.6a629.6 629.6 0 0 1-7.8 9.8l-.7.8a113.1 113.1 0 0 0-4.7 6.4l-.4.9c0 .3 0 .6.3.9l.6.2.6-.3.4-.5 3.8-4.1c1.1-1.5 2-3 2.8-4.9l6.8-8.3 5.7-7.2c1.8-2.5 3.7-4.9 5.8-7.1 4.7-6.2 9.5-12.2 14.5-18L241 105z"/><path fill="#A82933" d="M401 180.5c-3 1.1-6 2.1-9.2 2.9l-9.5 2v6.2l1.2.6c.4 0 .9 0 1.3-.2a97 97 0 0 0 8.8-2.4c2.8-.9 5.5-2 8.2-3.6l.7-1a7 7 0 0 0 0-3.5c0-.4-.1-.7-.4-1-.2-.2-.6-.3-1 0z"/><path fill="#9A151E" d="M424.7 146.7a54 54 0 0 0-1.3 4.1 36.4 36.4 0 0 1-1.8 4.7 39 39 0 0 1-3.4 8.2c-1.4 2.5-3 5-4.9 7.4a17 17 0 0 1-2.3 2.3l-2.5 2c-.9.7-1.7 1.4-2.4 2.2-.5.5-1 1-1.6 1.2a39.9 39.9 0 0 0-3.5 1.7c.5 0 .8.2 1 .5v4.3c.4.2.6.3.9.2.2 0 .4 0 .7-.2l.6-.4a39.3 39.3 0 0 0 16.3-18.8 94.7 94.7 0 0 0 5.6-19.2v-1c0-.4-.1-.8-.5-1.1h-.9v2z"/><path fill="#9A161F" d="M317.2 175.3l-6-6.7a58.3 58.3 0 0 1-4.9-7.4l-.2 9.7v.4l.3.7.1.7c-.1.7 0 1.3.1 1.7.2.4.5.6 1 .8l1.7.1h8z"/><path fill="#616161" d="M388.4 123l.3-.6c0-.2-.2-.4-.6-.7a8.3 8.3 0 0 0-1 .6 1265.7 1265.7 0 0 0-11.2 13.3v1a264.3 264.3 0 0 1-1.2 2 3158 3158 0 0 0-16 20.3l-1.4 3 5.4-6.9 5.6-6.8 11-13.5a158.2 158.2 0 0 1 9-11.7z"/><path fill="#636363" d="M230.9 136.6c.8-1.3 1.7-2.6 2.7-3.8l3-3.5 6.4-7.6-.6-.5-18.2 20.7-.7 1.1-.8 1a587 587 0 0 1-8 9.6l-3 4c-1 1.3-1.8 2.8-2.5 4.3a504.6 504.6 0 0 1 21.7-25.3z"/><path fill="#6B6B6B" d="M246.3 91.2a2 2 0 0 0-1 .6c1.6.4 3.1.7 4.7.9l4.6.4a66.4 66.4 0 0 1 9.2 1.4 66.1 66.1 0 0 1 10.5 2.2h1c.2 0 0-.4-.1-.8-.2-.4-.5-.7-.9-1l-1-.6-1.3-.8a3 3 0 0 0-1.3-.4c-.3 0-.5 0-.6-.2a1 1 0 0 1-.1-.5c0-.2-.2-.3-.3-.4-2.4-.4-4.7-.8-7.1-1l-7.2-.8c-.6 0-1.1 0-1.6.4-.3.1-.4.4-.3.6.5.4 1.1.6 1.7.6h1.7l1.6.2c-1.2.1-2.4 0-3.6-.2a852 852 0 0 0-3.7-.6 21 21 0 0 0-3.8-.3c-.4 0-.7.2-1 .3z"/><path fill="#595956" d="M273 131.3l-1.6 8.2-1 4.1c-.3 1.4-.8 2.8-1.4 4 0 .8-.1 1.4-.3 2l-.7 2c-.2.6-.4 1.2-.4 1.9.4 0 .8-.2 1-.4l.4-1 .3-.9.5-1.6c0-.5.3-1 .5-1.5l.2-1c0-.4.1-.7.3-1 0-.3.3-.5.7-.8.9-3.3 1.7-6.6 2.4-10 .7-3.3 1.2-6.7 1.5-10.1s0-6.9-.6-10.4a57 57 0 0 0-.7 8.3 77 77 0 0 1-1.2 8.2z"/><path fill="#2C2C2B" d="M415.5 155.9c-.6.4-1.1 1-1.4 1.6l-.9 2-1 1.9a31.6 31.6 0 0 1-12.7 13.2 1 1 0 0 0-.3.6c.6 0 1-.2 1.5-.3a20.8 20.8 0 0 0 4.4-2c.2 0 .5 0 .7-.2.4 0 .7 0 1-.2l.8-.5c1.6-1 3-2.3 4.2-3.7 1.1-1.4 2.2-3 3-4.5l2.7-4.9.2-.8c0-.2 0-.5-.3-.8-.5.3-1 .4-1.2.3-.3 0-.5-.2-.6-.6a6 6 0 0 1 0-1.1z"/><path fill="#434140" d="M416.6 162c-.6.4-1 .9-1.3 1.4a26 26 0 0 1-8.3 9c-.2.3-.2.5-.1.8.3.4.5.5.8.5.2 0 .5-.1.7-.3l.6-.6a392.6 392.6 0 0 1 4.7-4.6h.6c.2.3.3.5.2.7l-.3.6-.5.6c-.7 1-1.6 2-2.5 2.8l-2.9 2.3-2.9 2.3h.7c4.2-2.5 7.6-5.7 10.2-9.5 2.6-3.7 4.6-8 6-12.6l.2-.7v-.7c0-.2-.3-.4-.7-.5a4 4 0 0 0-1 1.5l-.6 1.7-.8 1.6a3 3 0 0 0-1 1.2l-.7 1.4c-.3.5-.6.9-1.1 1.1z"/><path fill="#525150" d="M286 109c.2-.2.5-.5.8-.6 1-.4 2.3-.6 3.5-.7.5 0 .9.2 1.2.5l.8 1 .8 1 1-.4.7-.6c.2-.2.1-.7 0-1.2-.3-1-.7-1.8-1.3-2.4a5.2 5.2 0 0 0-2.2-1.5c-1-.3-2-.4-3-.2-.9.1-1.6.5-2.2 1s-1.3 1.4-1.7 2.2c-.4.9-.6 1.7-.5 2.5 0 .2.1.4.3.5l.4.2.4.3.6-.7c0-.3.3-.6.5-.9z"/><path fill="#602E2F" d="M349.2 89.2l11-.3c4.3 0 8.5 0 12.8.2l12.7.7v-.4a390 390 0 0 0-4-.5 6 6 0 0 0-2-.7H375.5a174.1 174.1 0 0 0-25-.4l-12.5.5c-.3.2-.6.3-1 .3l-1 .3a2 2 0 0 0-.8.6c.5.3 1 .4 1.5.4h1.6l11-.7z"/><path fill="#707070" d="M417.3 158l-.3.7a46 46 0 0 1-4.6 7.8c-1.8 2.4-4 4.5-6.5 6.2v.9l1-.4a33 33 0 0 0 10-11l1.3-2c.3-.7.4-1.5.3-2.4a70.3 70.3 0 0 1 1.1-3c0-.1 0-.3-.3-.3h-.5a157 157 0 0 0-1.5 3.5zM283.6 95.6c.5.4 1.2.7 2.2 1l2.8.5c1 .2 2 .2 2.8 0 .8 0 1.5-.2 2-.5.9-.6 1.9-1 2.9-1.1h3a53 53 0 0 0 5.8.5c-.4-.7-.9-1-1.5-1.2l-1.8-.3h-8.9a22.1 22.1 0 0 1-4.4.4 5 5 0 0 1-2.2-.7H285c-.5 0-1 0-1.4.3l-.2.6c0 .1 0 .3.3.5z"/><path fill="#99999B" d="M269.2 150.5c-.4 1.1-1 2-1.6 3l-1 2.2-.8 2.3c-.3.8-.7 1.5-1.2 2.1l-2.3 2.7c-.7 1-1.2 2-1.6 3.2.1.3.4.5.7.6l1.4-1.5c4-6 6.9-12.7 8.7-19.8l-.2-1c-.6 1-1 2-1.2 3l-1 3.2z"/><path fill="#7F7F7F" d="M440.8 100v2.6a50.1 50.1 0 0 0 0 6.3c0 1 0 2.1-.2 3.1 0 .4 0 .7.2 1 .1.2.4.3.8.3.3-.2.5-.4.5-.6v-.9-1.1c0-.4 0-.7.4-1a1108.4 1108.4 0 0 0 0-11.7l-.5-.4h-1c-.2.8-.3 1.6-.2 2.5z"/><path fill="#4D4D4D" d="M279.2 129.8c.2-1.6.2-3.2 0-4.8a123.7 123.7 0 0 0-3 18.4l.9-4.5 1.2-4.6 1-4.5z"/><path fill="#605F60" d="M418.3 138.7l-.8 4.3.4.3c.1.1.3.2.5.1a83.6 83.6 0 0 0 2.2-20.7c0 1.3-.3 2.6-.5 3.9l-.7 3.9c-.3 1.2-.4 2.5-.5 3.8l-.6 4.4z"/><path fill="#979698" d="M418.4 143.4c-.2-.4-.5-.5-.9-.4v1l-.4 1.2a117.1 117.1 0 0 1-5 15.6l.1.5.4.4 3-5.8a61 61 0 0 1 2.1-8.3c.4-1.4.6-2.8.7-4.2z"/><path fill="#626262" d="M301.8 138.6v-2c-.5-1.1-.8-2.4-1-3.6l-.6-3.8c-.2-1.3-.6-2.5-1-3.7-.2 1.5-.2 3 0 4.5.2 1.4.6 2.9 1 4.3l1.6 4.3z"/><path fill="#434343" d="M283.6 95.6v-.8c-1-.6-2.1-.8-3.2-.9h-3.1c-1.1.2-2.2.3-3.3.2a1 1 0 0 0-.6.2l-.6.5 1 .5 1 .7v.5h-.2l-.3.2 1 .4h1l.4-.1c0-.7 0-1 .3-1.3.2-.2.4-.3.7-.2l1 .1c.3.1.6.2.8.1l2-.2 2 .1z"/><path fill="#2C2C2B" d="M422.3 154.4v1c.6-1.4 1.2-2.8 1.6-4.2.4-1.5.6-3 .8-4.5a74 74 0 0 0-3 6.8c.4.2.6.5.6.9z"/><path fill="#4E4D4C" d="M441 110.5v-13c-.2.3-.4.6-.4 1V112l.4-.7v-.8z"/><path fill="#2C2C2B" d="M418.5 157.8l-1.6 4.3c.6-.2 1-.5 1.4-.9.3-.4.5-.9.6-1.4l.5-1.5-.9-.5zM418.6 154.3c-.1.2-.2.5-.1.7.2-.2.4-.3.6-.2.2 0 .3.3.4.6l.4-.7v-.9-.8c-.2-.3-.4-.3-.5 0l-.4.6a5 5 0 0 0-.4.7z"/><path fill="#9A151E" d="M271.8 226h-23.4l-23.4.4a1098.1 1098.1 0 0 1-25.2 0 4 4 0 0 0-1.5.6c-1 1.2-1 2.4-.1 3.6 30.7-.3 61.3-.5 92-.5h92c.5-.6.7-1.2.7-1.8s-.2-1.2-.7-1.8c-.7-.4-1.5-.6-2.2-.6h-55.3c-17.6.1-35.3.1-53 0z"/><path fill="#A62731" d="M198.2 227.2c-.4-.3-.8-.6-1.3-.6h-5.3a155.7 155.7 0 0 1-8.4-.1c-1.5 0-3 0-4.5.2l-.8.5.5 3.4h19.8v-3.4z"/><path fill="#A62832" d="M400.9 226.2h-1.3a548.6 548.6 0 0 0-16.2 0 2 2 0 0 0-1.1.6v3.3H401c.4-.3.6-.6.8-1l.2-1.1v-1.3c-.4-.3-.8-.5-1.2-.5z"/><path fill="#99151E" d="M278.6 62c.4 0 .7-.2 1-.5h-31.2c-.4 0-.8.1-1 .4h31.2zM419.3 61.5c.4 0 .7-.2 1-.5H401.8c-.4 0-.8.1-1 .5H419.2zM429.3 61.5c.6 0 1.1-.1 1.6 0-.5-.4-1-.5-1.5-.6s-1.1 0-1.7 0c-.5.1-1 .1-1.6 0 .5.4 1 .5 1.6.6h1.6zM201 72.9h2.3a81331.4 81331.4 0 0 1 142.9-.2l16-.4a514 514 0 0 1 17.6 0c.5 0 1-.3 1.6-.7a9.8 9.8 0 0 0 0-8.2h-61.1l-61 .4h-61.1a9.7 9.7 0 0 0-.8 4.1c0 1.4.2 2.8.6 4.1.2.3.5.4.8.6a9 9 0 0 0 2.2.3z"/><path fill="#9A151E" d="M151.7 64.2c-.7.3-1.1.7-1.4 1.3-.2.7-.3 1.6-.3 2.7v8.2c.4.4.7.6.9.5l.3-.5v-.7c.1-.8.4-1.5.8-2 .3-.6 1-.9 1.7-1a65.8 65.8 0 0 1 4.5-.7H178c.6-.8 1-1.7 1.2-2.6s.2-1.8 0-2.7a22 22 0 0 0-.8-2.8h-24c-1.2 0-2.1.1-2.7.3z"/><path fill="#A82933" d="M394.8 63.4h-13.5v8.2a4121.7 4121.7 0 0 1 26.7 0c1 0 2.1-.2 3.2-.5a140.2 140.2 0 0 1-7.4 0c-1 .1-1.8-.1-2.2-.6-.4-.4-.6-1.1-.5-2v-5.1a18 18 0 0 0-6.3 0zM198.2 63.9h-19.8v5.4c0 1-.1 1.9-.4 2.7l.5.1c.3.3.7.5 1.1.6l1.3.1a548.6 548.6 0 0 0 16.2-.1 2 2 0 0 0 1-.7V64z"/><path fill="#99151E" d="M394.8 63.4h6.3a9 9 0 0 0-6.3 0z"/><path fill="#F33F4D" d="M198.2 72h-19.8v14c0 1.4 0 2.4.2 3 0 .6.4 1 1 1.1a218.4 218.4 0 0 1 4.6.5l.8.5 1-.1.8-.2c.7-.2 1.5-.3 2.2-.3h2.3a12.6 12.6 0 0 0 3-.2c.4-.2 1-.3 1.5-.2l1.5-.1a2 2 0 0 0 1.3-1 65.8 65.8 0 0 0 .4-10.3l-.1-5.1c-.1-.6-.3-1-.7-1.5z"/><path fill="#C1C0C2" d="M139.2 98.8c-.5 0-.9.1-1.3.3s-.7.4-1 1h1.6l1.9-.3 4.7-.7a47 47 0 0 1 4.7-.6c1.6 0 3.2.2 4.8.6h.9l.6-.6A8 8 0 0 1 159 96c1-.6 2.2-1 3.4-1.3l3.6-.6a431.6 431.6 0 0 1 58-4.1c.2-.1.3-.4.2-.8-.4-.3-.8-.5-1.2-.5h-1.3a751.5 751.5 0 0 0-18.2.1 78.3 78.3 0 0 1-9.6 1c-.7.2-1.6.3-2.4.3H189c-.9-.1-1.7 0-2.5.2l-2.2.2a116.5 116.5 0 0 0-8.2.7 224.5 224.5 0 0 0-9.3 1h3.5a13.5 13.5 0 0 1-4.4 1l-3.3.5a12 12 0 0 0-3.1 1c-1 .4-1.9 1.1-2.7 2-.6.8-1.4 1-2.2.6a6 6 0 0 0-1.9-.4c-.6 0-1.3 0-1.9.2-3.9.4-7.7 1-11.5 1.6z"/><path fill="#C1C0C2" d="M159.8 92.8l-.2.4c2.4.1 4.7-.2 7-1-1.3 0-2.4 0-3.5.2l-3.3.4z"/><path fill="#E02430" d="M177.7 185.9a35.4 35.4 0 0 1-14.4-12.4 67 67 0 0 1-8-17.8c-1-3.1-1.7-6.3-2.4-9.5l-2-12.9a32.2 32.2 0 0 0-.9 7 19363.4 19363.4 0 0 0 0 71 73.5 73.5 0 0 0 1.2 12.4c0 1 .4 1.8.8 2.3.4.6 1.1.9 2.2 1 1 .2 2.5.2 4.5.2h19.7l.3-1.2v-1.2V192a47.8 47.8 0 0 1 .3-4.3c.1-.5 0-.9-.2-1.2l-1-.6zM333.2 192.2a36.6 36.6 0 0 1-7.3-2.5l-2-.2c-.7-.3-1.4-.5-2.2-.6h-2.3a5322.5 5322.5 0 0 1-26.2-.1 3 3 0 0 1-1.5-.6c-.3-.4-.5-.9-.6-1.6v-2.9V125v-1.4c0-.4 0-.9-.2-1.4l-.6-1.3-.3-.1c-.3-.5-.7-.7-1-.8-.3 0-.6 0-1 .2l-1 .7c0 .1 0 .3-.2.5-.4.6-.6 1.3-.6 2v2c-.1 15-.1 30 0 44.9 0 2.3-.4 4.7-.9 7-.9 3.9-2.5 6.8-5 8.7-2.3 2-5.6 3-9.6 3a1227.8 1227.8 0 0 0-12.7 0 2 2 0 0 0-1.5.8 2 2 0 0 1-1.1.3l-1.2-.1h-1.1c-1.3.1-2.6.4-3.8.8-4.5 1.3-9 2.2-13.6 2.7a128.8 128.8 0 0 1-36.7-1c-.4.2-.8.4-1.1.8-.3.5-.5 1.1-.5 1.7v20.8a145.9 145.9 0 0 1 0 7.6c0 1-.2 1.7-.6 2.1-.4.5-1.1.6-2 .6a33 33 0 0 0-6.6.3c-.3.1-.5.4-.6.9h10.6a1281.9 1281.9 0 0 1 39.2-.3l72.4-.2H402v-.4c-.4-.5-.9-.7-1.4-.7l-1.7-.1h-12.4c-1.1 0-2 0-2.4-.2-.5-.1-.8-.4-.9-.9l-.1-2.3v-26.4-1.3c0-.4 0-.8-.2-1.2s-.3-.8-.6-1.2l-2 .3c-5.6 1.1-11.3 1.8-17 2-4.4.3-8.8.3-13.2.1a82.3 82.3 0 0 1-16.9-2.2zM428.1 134.5c0-1-.2-2.1-.5-3.1l-2 13.4v1.2a104.6 104.6 0 0 1-4.4 17c-1 2.7-2.3 5.3-3.8 8-1.9 3-4 5.8-6.5 8.3a32.6 32.6 0 0 1-8.8 6l-.6.5-.2 1.4v1.4c-.1 3.9-.2 7.7 0 11.6l.2 11.6a441.8 441.8 0 0 1 .3 13c.1.6.3 1 .7 1.5a2010.1 2010.1 0 0 1 23-.2c.6 0 1-.3 1.4-.7.3-.3.5-.9.7-1.6 0-.7.2-1.6.4-2.7a94.6 94.6 0 0 0 .8-15.2l.1-7.6a487.6 487.6 0 0 0-.2-37 574.7 574.7 0 0 1-.2-20.5c-.2-1-.3-2-.3-3.1v-3.2z"/><path fill="#F33F4D" d="M402 186.8c0-.4-.1-.7-.5-1a101.8 101.8 0 0 1-13.5 4.8 39 39 0 0 1-5.7 1V224c0 .9 0 1.5.4 1.8.3.4 1 .5 1.9.5a257.3 257.3 0 0 1 17.5 0h.4v-10.7l-.4-10.7a227.6 227.6 0 0 1 0-18z"/><path fill="#9A151E" d="M167.8 174.1a25 25 0 0 0-2.3-2.2 9.4 9.4 0 0 1-2-2.5l-.9-1.6c-.3-.5-.8-.9-1.4-1-.4-.3-.8-.7-1-1.1l-.6-1.3a50 50 0 0 1-5.6-14.7l-.4-1.8c-.1-.6-.4-1.2-.7-1.7v1c.5 3.4 1.3 6.9 2.2 10.3 1 3.3 2.2 6.6 3.7 9.7a43.2 43.2 0 0 0 13.6 16.5c1.5 1 3.2 2 5 2.6.4 0 .7-.1.9-.3l.2-.7v-.7l.2-2.8c0-.5-.2-1-.5-1.1l-1.1-.6-2.8-1.4c-1-.4-1.8-1-2.5-1.6l-.6-.4a37.7 37.7 0 0 1-3-2.1c0-.2-.2-.3-.4-.5z"/><path fill="#313131" d="M135.4 106.8v-5.5a18.7 18.7 0 0 0-.8 6c0 1.2 0 2.3.2 3.2.1 1 .3 1.6.6 2v-5.7z"/><path fill="#0C0C0C" d="M141.8 119.3l.5-1h-1l-1-.2h-.7c-.2.2-.3.6-.3 1.3 0 .3 0 .6.3.8l.7.6c.4-.1.8-.3 1-.6l.5-1z"/><path fill="#242424" d="M140.5 118.3h.9c-.4-.3-.7-.4-1-.4h-2.1c0 .4.2.7.4 1l.6.5c0-.5.2-.7.5-.9l.7-.2z"/><path fill="#0C0C0B" d="M438 119.6c.3-.3.5-.6.6-1 .1-.4.3-.7.6-1l-1.3-.2h-1.2c-.4 0-.8.2-1 .5-.2.1-.1.3 0 .6l.6.9.7.5c.5 0 .8 0 1-.3z"/><path fill="#5A5A59" d="M410 160.7c-.3 0-.6-.1-.8 0h-.8c-1.6.2-3 .4-4.5.9l-4.3 1.3-8.3 2.4a137.3 137.3 0 0 1-16.8 3.7 79.4 79.4 0 0 1-32.7-3.5c-.2-.1-.4-.4-.4-.9h-.7a1 1 0 0 0-.4.4l-.3.5-2.4 3.3-2.8 3.5 2.2-2.8a36.5 36.5 0 0 0 2.6-4c0-.3-.2-.5-.5-.9a44.4 44.4 0 0 0-8.7-2.7 93.7 93.7 0 0 1-9-2.8 29.4 29.4 0 0 0-6-1.2c-.3 0-.6 0-1 .2-.2.2-.4.6-.5 1.2a36.4 36.4 0 0 0 15.4 15.3 45 45 0 0 0 9.3 3.6c3.2.9 6.5 1.5 9.8 1.9a141.4 141.4 0 0 0 17.3.8 134 134 0 0 0 14.6-1.4l1.8-.2a42 42 0 0 1 3.6-.7c.5 0 1.3-.3 2.3-.6l3-.9a34.5 34.5 0 0 0 17.3-11.1v-1a71 71 0 0 1 2.2-3c.1-.3.1-.5 0-.8-.2-.3-.4-.5-.6-.5z"/><path fill="#343434" d="M353 138.1h-5a186.7 186.7 0 0 0-24.4-1.3 32.9 32.9 0 0 0-13.3 2.8c-1 .4-1.7 1-2.1 1.8-.5.8-.5 1.7-.1 3 .7 2.5 1.6 5 2.5 7.6s2 5 3.3 7.3c.6-.8 1.3-1 2.3-.8a96.6 96.6 0 0 0 6 1.5l17.2 5.1c.4 0 .7 0 1-.2l.6-.7.5-.8c3.3-4 6.5-8.1 9.6-12.3a4120.1 4120.1 0 0 1 10.3-13.7l-.4-.8-1.3 1c-.5.3-1 .4-1.6.5h-5z"/><path fill="#767676" d="M381.6 113.4c1.5-1.8 2.8-3.7 4-5.8a57.2 57.2 0 0 1 6.8-8.2l.2-.7V98h-1.1l-10.1 12.5a473 473 0 0 0-10.3 13l-10 13c-.2.2-.2.4-.2.6l-.3.5a844.8 844.8 0 0 1-21.2 27.4l-1.7 2.5-2 2.5-1.4 2.8c1.5-1.1 2.8-2.4 3.9-3.9l3.2-4.4a9602.7 9602.7 0 0 0 23-30c.6-.2 1-.5 1.4-1l1-1.2a510.9 510.9 0 0 1 10.4-13.4l4.4-5.6z"/><path fill="#1D1D1D" d="M385.6 107.6l-1.2 1.2a1116 1116 0 0 0-20 25.9c0 .9.1 1.5.6 1.9.4.3 1 .5 1.9.5h4.5c1.5 0 3-.3 4.6-.5l2.1-2.8c1-1.4 2.2-2.7 3.4-4a406.2 406.2 0 0 0 6.6-8.1c-1.8-.2-3-.7-3.8-1.6a4.4 4.4 0 0 1-1.3-3c0-1.2.2-2.5.7-4l.8-1.7.8-1.8c.2-.6.3-1.3.3-2z"/><path fill="#191919" d="M408.6 167.2c.2-.4.3-1 .2-1.6a9 9 0 0 0-.5-.6 33 33 0 0 1-12.5 9.9 48 48 0 0 1-14 4.1c.5.4.9.6 1.3.6l1-.2 1.3-.2 1.4-.4 1-.3a404.6 404.6 0 0 0 7.5-2.3c2.2-.7 4.2-1.6 6-2.8a32.2 32.2 0 0 0 6.3-5.1 4 4 0 0 0 1-1.1z"/><path fill="#C3C3C5" d="M412.5 161.1c0-.2-.2-.3-.4-.4l-3.3 5a28 28 0 0 1-6 6.1 39.7 39.7 0 0 1-7.5 4.4 10.8 10.8 0 0 0 2.6-.7c.4-.2.8-.2 1.3-.3 6-3 10.4-7.5 13.4-13.5v-.6z"/><path fill="#3E3D3E" d="M185.4 145.8a112.4 112.4 0 0 0-15.7-.1c-1.3.1-2.6.5-3.9 1a8.9 8.9 0 0 0-3.3 2.4 30.4 30.4 0 0 0 3.9 10.6c1.1-.3 2.3-.4 3.4-.3 1.2 0 2.3.2 3.5.4l5 1.3a1165.8 1165.8 0 0 1 11.3 2.9h1.2a2 2 0 0 0 1-.4l3.8-4.4 3.5-4.6a110.6 110.6 0 0 0 4.8-5.8c.7-.9 1.4-1.9 2-3-1.2.5-2.5.8-3.7 1h-3.6l-3.7-.4-3.7-.3c-2 0-4-.2-5.8-.3z"/><path fill="#626261" d="M261.6 159.4l-7.4 2a196.5 196.5 0 0 1-19.3 5.1 87.7 87.7 0 0 1-25.3 1 92.5 92.5 0 0 1-16-3.2 1 1 0 0 1-.2-.7L191 167a39 39 0 0 1-5.6 6c.8-1.8 1.8-3.4 3-4.9l3.5-4.4c-.8 0-1.5 0-2.3-.2l-2.1-.6a153.5 153.5 0 0 1-11.3-3 46.7 46.7 0 0 0-7.2-1.3c-.5 0-1 0-1.4.2-.5.2-.9.6-1.2 1a30.8 30.8 0 0 0 15.1 15.2c2.6 1.4 5.5 2.4 8.5 3.2.4.6 1 1 1.8 1a97.1 97.1 0 0 0 25.4 2.6h6.9a66.6 66.6 0 0 0 22.5-4.4 49.4 49.4 0 0 0 13.3-9.2l1-2c.3-.7.7-1.4 1.2-2l1.4-1.8c.5-.7.8-1.4 1.1-2.1-.4-.6-1-.9-1.4-1-.6 0-1.1 0-1.6.2z"/><path fill="#616060" d="M192.8 185.1c4.2.8 8.5 1.2 12.9 1.4a65.7 65.7 0 0 0 5.2-.6l2.7.1c1.2.3 2.4.3 3.6.2l3.7-.3c1.2 0 2.4 0 3.6.2h.6l.5-.4.5-.5a1 1 0 0 0 0-.7c0-.2-.2-.3-.4-.4H222.6c-.5 0-.9 0-1.3-.2H220l-1.1-.4c-.4-.2-.7-.6-1-1a1 1 0 0 0-.5-.3l.7-.2c.2 0 .3-.1.4-.3 0-.1 0-.3-.3-.5a118.6 118.6 0 0 1-29.7-2.7l-1.6.2-1.6-.3a32.6 32.6 0 0 1-15.5-9.5l-1.4-.7c-.5-.3-1-.4-1.5-.3-.2.3-.3.5-.3.8a32 32 0 0 1-5.3-8.7c-.2-.3-.5-.6-1-.8h-.1l-.2.2c-.1 0-.2 0-.2-.3l-.5-1.4-.7-1.4-.4-.4-.6.1-.1.4.2.5 3.5 9.8a64.5 64.5 0 0 1 3.3 4.4l1.8 1.7c.6.5 1 1.2 1.6 1.9a53 53 0 0 0 24.9 10.4m-20.1-11.3z"/><path fill="#3E3E3E" d="M168.2 168.8c.5.2 1 .2 1.6.1a69 69 0 0 1-4.5-6.9 39 39 0 0 1-3.3-7.5l-.7-.4a4 4 0 0 0-.8-.3l-1.2-.5-1.2-.4c-.4 0-.7.2-1 .5-.3.4-.4.7-.3 1 0 .5.1.9.3 1.3l.6 1.2.1-.5h.2a53.4 53.4 0 0 0 1.9 3.5l.1-.2.1-.4.2-.7-.2-.6 1.6 3.3 1.9 3.1.9 1.4c.2.5.5 1 .9 1.3s.8.7 1.4.9l1.4.8z"/><path fill="#868686" d="M243.3 88.9l-5.4-.3-5.5-.2c-1 .3-1.8.4-2.7.3a35.7 35.7 0 0 0-4.7.2l-.9.6-1.8.4h-8.6c-.8 0-1.7.2-2.5.4a52088.3 52088.3 0 0 0 15.6.3 64.5 64.5 0 0 1 12.3.8h.5c.6.2 1.2.3 1.8.2h1.8c.6 0 1.1 0 1.7.2h1.5c.3 0 .7-.1 1-.4a.9.9 0 0 0-.6-.5c-.3 0-.5-.1-.7-.3l1.5.2c.3 0 .5-.1.6-.3l.5-.7c-1.8-.5-3.6-.8-5.4-1z"/><path fill="#6B6B6B" d="M231 90.4a66 66 0 0 0-7.3 0 119.6 119.6 0 0 0 15.4 1l-.5-.3a259.8 259.8 0 0 0-7.7-.7zM241.4 91.3h-1.8a5 5 0 0 0 1.7.5h3.6c-.6-.3-1.1-.4-1.7-.5h-1.8z"/><path fill="#191919" d="M349.7 93.8a2 2 0 0 0-1.2.4h20.3c-.3-.3-.7-.4-1-.4h-18.1zM391 101l2-.6c.3-.2.6-.4.7-.7l.1-1-.1-.9a1 1 0 0 0-.6-.5c-.4-.2-.8-.2-1 0s-.5.4-.6.9c.7 0 .9.3.4 1l-.6.8c-.2.2-.4.6-.4 1zM374.8 94.2H373c.5.3 1 .5 1.6.5h3.3c-.5-.3-1-.4-1.6-.5h-1.6z"/><path fill="#383737" d="M195.6 180l2.8.5a201 201 0 0 0 20 1c1 .3 2 .5 3 .5s1.8-.2 2.8-.6c-.4-.3-.8-.4-1.2-.5h-1.2l-1.1.1a125.6 125.6 0 0 1-30.7-2.5c.9.5 1.8.8 2.7 1 1 .3 1.9.5 2.9.6z"/><path fill="#F4F4F4" d="M280.4 146.1a129.2 129.2 0 0 1-5.2 19 44.3 44.3 0 0 1-12.4 18.9 219 219 0 0 1-7.9 5.3 23.8 23.8 0 0 0 1.6.4h15.2c2.4 0 4.6-.5 6.5-1.4 2-1 3.6-2.3 4.9-4 1.3-1.6 2.2-3.6 2.8-6a60.4 60.4 0 0 0 1-9.8c.2-15.7.1-31.5 0-47.2-1 .7-1.8 1.4-2.3 2.4-.5 1-.8 1.9-1 3a1015.7 1015.7 0 0 0-3.2 19.5z"/><path fill="#9B151E" d="M248 191.9c1.8-.6 3.4-1.2 5-2l-17.4-.1c-1 0-1.8 0-2.3-.2s-.9-.5-1-1c-.2-.4-.2-1.2-.2-2.2-.3-.3-.6-.5-1-.6a2 2 0 0 0-1 0h-1a181.8 181.8 0 0 1-27.6.1c-1 0-2.2 0-3.3.2-.4.6-.7 1.3-.7 2v2c0 .8 0 1.5.2 2.2 0 .2.3.5.5.7h1.2l1.2.1a123.5 123.5 0 0 0 47.5-1.2z"/><path fill="#1D1D1D" d="M276 150.5c-.3.4-.4.8-.5 1.2l-.4 1.2-.7 1.1c-.8 1-1.4 2.2-1.9 3.3l-1.6 3.5c-2.3 4.1-5 7.8-8.1 11a38.4 38.4 0 0 1-11.2 7.8c-3 1.3-6 2.4-9.1 3.2a83.2 83.2 0 0 1-14 2.5c-1.4.3-2.8.5-4.3.5l-7.1.2a74.3 74.3 0 0 1-8.7-.1l-1.5.2c-.5 0-1 0-1.5-.3-2 0-4-.1-5.8-.4l-5.8-.9a68.3 68.3 0 0 1-22.6-7.4c.6.8 1.3 1.5 2.2 2l2.5 1c1 .4 1.7.8 2.5 1.4.2.3.5.6.8.7l1 .4c2.6 1 5.3 1.8 8 2.4a220.5 220.5 0 0 0 9 1.7c.4 0 .7-.2 1-.5a534.8 534.8 0 0 1 13.8 1h10l10-.8 2.2-.5a74.6 74.6 0 0 0 18.6-5.2 42 42 0 0 0 8.3-5.2l.9-.3c.3 0 .5-.2.8-.5 1.7-1.7 3.4-3.5 4.9-5.3a27 27 0 0 0 3.7-6.3 75.7 75.7 0 0 1 3.3-7.3c.7-1.6 1.2-3.3 1.7-5l-.2-.2h-.2z"/><path fill="#9A171F" d="M265 171.7a37.8 37.8 0 0 1-4 3.8 47.8 47.8 0 0 1 4.4 0c1.5-.1 2.7-.6 3.7-1.4 1-.9 1.6-2 1.8-3.4a37.2 37.2 0 0 0 .5-7.6l-3.1 4.4c-1.1 1.5-2.2 2.9-3.4 4.2z"/><path fill="#9A1921" d="M290.3 107.7c-.7-.4-1.3-.6-2-.6-.5.1-1 .5-1.5 1.3l.3 12.4 1-.1c.3-.2.6-.2 1-.3.3 0 .6 0 1 .3a46.5 46.5 0 0 0 .1-8.6v-4.4z"/><path fill="#E02430" d="M203.7 89.4l1.3-.3h26.7c.4-.5 1-.9 1.6-1a5 5 0 0 1 2-.4h10.5c3.5 0 7-.3 10.5-.4l10.5-.1c2.2 0 4.3.1 6.3.5 2 .3 3.9 1 5.7 2 1.7.9 3.3 2.2 4.8 4l3.4.4c1.1 0 2.2-.2 3.4-.7.3-.4.4-.9.5-1.3v-1.5c0-.9.2-1.6.4-2.1s.4-.8.9-1l2-.2c3.6.2 7.2.2 10.8 0l11-.2a106.1 106.1 0 0 1 21.5 1.8 614.7 614.7 0 0 1 44.3 0c-.3-.4-.4-.8-.4-1.2v-1.3-14.8h-16.5l-16.5.3c-5.4.3-10.7.3-16 .3l-16-.2-118.2.1v17.2c.9.3 1.8.4 2.7.4 1 0 2-.1 2.8-.3z"/><path fill="#DDD" d="M389.5 178l-1.8.6c.7.8 1.4.9 2.2.1.2-.2.2-.4.1-.5l-.5-.2z"/><path fill="#F4F4F4" d="M292.6 122c-.6-.6-1.3-1-2.3-1.2v66.1c0 1 .3 1.7.7 2.1.4.5 1.1.7 2.1.7l30.8-.2-.3-.3a40 40 0 0 1-14.8-13c-.4-.4-1-.6-1.6-.6-.5 0-.8 0-1-.4-.1-.3-.2-.6-.1-1a1236.8 1236.8 0 0 1 0-3.3 28.9 28.9 0 0 0-1.2-2 72.2 72.2 0 0 1-6.1-19 317.8 317.8 0 0 1-3-16.7 163.4 163.4 0 0 0-2-9.2c-.3-.7-.7-1.4-1.2-2z"/><path fill="#51504F" d="M271.9 157.6l-1.4 2.7a51.6 51.6 0 0 1-14 15.7c-3 2-6.3 3.5-9.9 4.7a63.5 63.5 0 0 1-12.5 2.7c-4.2.5-8.5.6-12.8.5.4.3 1 .5 1.5.5h1.5c.5 0 1 .2 1.5.5-2.3.3-4.6.5-6.8.5h-6.8c-2.3 0-4.6.2-6.8.4l.8.4h.8a230.1 230.1 0 0 0 23.4-.7c4-.4 7.8-1 11.7-2a44 44 0 0 0 20.2-10.3c5.3-5 9.3-11.4 12-19.2-.2-.1-.5-.2-.6-.1l-.3.4-.1.5-1.4 2.8z"/><path fill="#D7D6D8" d="M260.9 166a42.2 42.2 0 0 1-19.7 12.7c0 .4.1.6.3.6.2 0 .4 0 .6-.2 4-1 7.5-2.5 10.8-4.6 3.2-2 6-4.6 8.5-7.9l-.5-.5z"/><path fill="#989799" d="M241.2 178.7l-8.5 1.7a65.9 65.9 0 0 1-14.3 1c-.3.4-.6.5-1 .5h-1.2l-1.2.3 3 .3a215.4 215.4 0 0 1 9.1-.6 2214.2 2214.2 0 0 1 10-1.4c1.7-.3 3.4-.8 5-1.4l-.9-.4z"/><path fill="#F2F2F1" d="M290.6 87.2c-.3.4-.5 1-.4 2v4c.3.3.6.6 1 .6.4.1.8.2 1.2.1h5a81.4 81.4 0 0 0 9.8-.5c1.1-.3 2.3-.5 3.5-.6a57 57 0 0 0 6.6-1 1 1 0 0 0-.2.3c0 .1 0 .2.4.3a65 65 0 0 0 15.2-2l-4.7-.1V90l7.1-.5c.3 0 .5-.1.8 0l.9-.2c.2 0 .5-.1.8-.4-1.4-.8-2.8-1.5-4.2-1.8-1.5-.4-3-.6-4.5-.5a10522.5 10522.5 0 0 0-36.5 0c-1 .1-1.6.3-1.8.6m30.8 4l-.4-.1.6-.2s0-.1 0 0 0 .2-.2.2m-2.6.4l-1.2.2 1.4-.3-.2.1z"/><path fill="#9F9FA0" d="M305 96c.5-.5 1-1 1.6-1.2a10 10 0 0 1 1.9-.8c1-.4 2-.6 3-.7l3-.3c1 0 2-.3 3-.6l-.2-.5c-.1-.2-.2-.3-.4-.3-.3 0-.5 0-.6-.2h-1c-.4 0-.8.1-1 .3V92l-3.7.5c-1.2 0-2.3.3-3.5.5a84.3 84.3 0 0 1-16.2.7h-.9c-.3.2-.6.4-.8.8.2.4.4.6.7.6h.9l.9-.2c.3 0 .5 0 .8.2h2.3a53.5 53.5 0 0 1 5 0h2.7c.9.2 1.7.4 2.6.9z"/><path fill="#F2F1EF" d="M232.2 87.4c-.2.3-.3.8-.2 1.5a196.1 196.1 0 0 0 9.3.5l2.4.2a29.4 29.4 0 0 1 5 .7c.1.2.3.4.6.5 1.4.3 2.9.3 4.3 0 5.5.3 11 1 16.5 2a23.2 23.2 0 0 0 8.5 1.3 62.6 62.6 0 0 0 4.7-.5l.3-.4c-1.4-2.3-3.2-4-5.4-5s-4.6-1.5-7.2-1.5a605.6 605.6 0 0 0-21.9 0l-14.6.1-1.3.1-1 .5z"/><path fill="#211F1F" d="M283.7 93.2c-2.3.2-4.6.2-6.8 0l-6.8-.5-.2.2h-.3c-.1 0 0 .2.2.3l1.5.8 1.5.8H286.5c.3 0 .6 0 1 .2h.8c.3 0 .6-.1.9-.4l3.4-.3h3.4a58.4 58.4 0 0 0 11.7-1.2l-.1-.4c-3 .4-5.8.6-8.7.6l-8.7-.1h-6.5z"/><path fill="#F9F9F9" d="M245 90.5v.3l2.4.6a123.6 123.6 0 0 1 1.9 0c1.6.6 3.3.8 5 .9 1.7 0 3.4 0 5-.2l-2.8-.6a12 12 0 0 0-2.9-.2c-.3-.4-.7-.6-1-.7h-2.4c-.4 0-.8 0-1.1-.3h-.4l-3.6.2z"/><path fill="#868686" d="M252.5 90.8c.4 0 .8.2 1.1.5v-.5a6 6 0 0 0-2.2-.5h-2.3c.3.4.7.6 1 .6h1.2a8 8 0 0 1 1.2 0z"/><path fill="#F5F5F5" d="M290.3 94.8c-.4 0-.8 0-1.1-.2l-2.8.2c.7.5 1.3.8 2 .9s1.4 0 2-.1l2.1-.5-1-.3h-1.2z"/><path fill="#F33F4D" d="M178 187.8c-.1.2-.2.5-.1.9v.9a6204.6 6204.6 0 0 0 0 36.3l.5 1.3h9.2a18.2 18.2 0 0 1 5.3-.4h2.8c1 0 1.6-.1 2-.5.4-.4.5-1 .5-2a2482 2482 0 0 1 0-31.7l-1-.7-1.2-.2a124 124 0 0 1-16.2-4.7c-.3 0-.6 0-.9.2-.5.1-.8.3-.9.6z"/><path fill="#764C4E" d="M203.7 89.4h-8.5a3 3 0 0 0-1.4.5h5c1.6 0 3.3-.1 5-.5z"/><path fill="#764C4E" d="M191.4 90.3c.8 0 1.6-.2 2.5-.4h-5c-.9 0-1.7.2-2.5.5a63.2 63.2 0 0 1 5 0zM205.1 89c-.5 0-1 .1-1.3.4l20.3.1c1-.1 1.9-.2 2.8-.1l2.8.1c.9 0 1.8-.2 2.7-.5l-.4-.1a3228.7 3228.7 0 0 0-26.9 0z"/><path fill="#A92933" d="M198.2 186.3a169.5 169.5 0 0 1-19.8-4.8c-.3.3-.4.7-.5 1.1v2.5c0 .5-.1.8-.4 1.2l1.4 1 5.8 2c4.4 1.6 8.9 2.7 13.5 3.3v-6.3z"/><path fill="#1D1D1D" d="M167.9 174.7c-.4-.8-.9-1.5-1.4-2l-1.8-1.8c-.6-.5-1.2-1-1.7-1.7.3.8.7 1.5 1.2 2.2s1.1 1.2 1.8 1.7l1.9 1.6zM171.3 177.1c-1-1.2-2-2-3.5-2.4.8 1.2 2 2 3.5 2.4z"/><path fill="#818181" d="M168.2 169.9a5 5 0 0 1-1.4-2c-1-1-1.8-2.2-2.5-3.4l-2.3-3.8a54 54 0 0 0-2.6-3.6l.7 2.2c1.6 3 3.2 5.7 5 8 1.5 2.2 3.1 4 4.6 5.2s2.9 1.9 4 1.9c-.1-.5-.4-.8-.8-1l-1-.8a14 14 0 0 0-1.8-1.4l-1.9-1.3z"/><path fill="#686869" d="M307.6 92.7v.5a79.4 79.4 0 0 0 5.3-.6c.8 0 1.7-.3 2.6-.7a15.1 15.1 0 0 0-1.2-.2l-3.4.3c-1.1.1-2.2.4-3.3.7zM316.3 91.4l1 .5a160.3 160.3 0 0 1 5.7-.9h-2.4l-2.2.2-2 .2z"/><linearGradient id="o" gradientUnits="userSpaceOnUse" x1="229.2" y1="-419.6" x2="230.2" y2="-419.6" gradientTransform="scale(-52.519) rotate(71.9 -174.3 -375.2)"><stop offset="0" stop-color="#ededed"/><stop offset=".3" stop-color="#ededed"/><stop offset=".3" stop-color="#bfbfbf"/><stop offset="1" stop-color="#bfbfbf"/></linearGradient><path fill="url(#o)" d="M313.5 234.6c-7.1 1-11.2 2.6-12.1 4.7l23.5 5.6c74 17.4 108.5 37.6 103.3 60.6-8.6 24.4-49.6 30.8-123.2 19.2-3.2-.5-6.1.2-8.7 2.1-2.6 2-4.2 4.5-4.7 7.7s.2 6 2.1 8.6c2 2.6 4.5 4.2 7.6 4.7 90.6 14.2 140.4 2.3 149.4-36 9.8-30.1-13.7-55.2-70.5-75.3l-8.6-1.9h-58z"/><path fill="#EDEDED" d="M291.5 335l-.8 27.3a7.7 7.7 0 1 0 15.4.4l.8-27.2a7.7 7.7 0 1 0-15.4-.4M273.6 335.5l.8 27.2a7.7 7.7 0 1 0 15.4-.4L289 335a7.7 7.7 0 1 0-15.4.4"/><linearGradient id="p" gradientUnits="userSpaceOnUse" x1="227.3" y1="-421.4" x2="228.3" y2="-421.4" gradientTransform="scale(52.519) rotate(-71.9 409.9 -54.2)"><stop offset="0" stop-color="#ededed"/><stop offset=".3" stop-color="#ededed"/><stop offset=".3" stop-color="#bfbfbf"/><stop offset="1" stop-color="#bfbfbf"/></linearGradient><path fill="url(#p)" d="M279.2 239.3c-1-2.1-5-3.7-12.2-4.7h-58l-8.7 2c-56.8 20-80.3 45.1-70.5 75.3 9 38.2 58.8 50.2 149.4 36 3.1-.6 5.7-2.1 7.6-4.7a11 11 0 0 0 2-8.7 11 11 0 0 0-4.6-7.6 11 11 0 0 0-8.7-2.1c-73.6 11.5-114.6 5.1-123.2-19.2-5.2-23 29.3-43.3 103.4-60.7l23.5-5.6z"/><path fill="#801118" d="M321.6 66.4l2.1-.6 3.4-1a164.4 164.4 0 0 1-11.7 6.7l8.2-3.6 6.7-2.2a94 94 0 0 1 12.8-3l-1.4-1.2c-6 1-11.6 2.3-16.7 3.8l-3.4 1M236.7 62l2 1.7c4.2 0 9.3 1.3 15.5 3.7l7.3 3.7 1 .2c-3-2-5.9-3.9-8.2-5.7l1.4.5 2 .6-1.6-.5-1.5-.5-.3-.2-1.1-.3a83.8 83.8 0 0 0-16.5-3.2z"/><path fill="#99151E" d="M327 70.6l-3.4-2.7-8.2 3.6-1.2.6-4.3 2.1a19 19 0 0 1 5.8-1.3l12.4-.8-1.2-1.5m-67.4.1L248.4 72c7.8-.2 14.3.7 19.4 2.8l-5.2-3.4-1-.2-2.1-.4z"/><path fill="#E02430" d="M273.2 78.1c2.7 1.8 6.6 3 11.7 3.6 5 .6 10.3-.3 16-2.9l9-4.6 4.3-2a74 74 0 0 0 3.9-2l9-5.5-3.4 1a125.2 125.2 0 0 0-15.3 6 61.2 61.2 0 0 1-17 3.9 46.4 46.4 0 0 1-18-2.3c-2.6-.9-5.1-1.9-7.5-3-2.4-1.2-5.8-2.6-10.2-4.2l-1.4-.5c2.3 1.8 5.1 3.7 8.3 5.7l5.2 3.4h.2l.1.2 5.1 3.2m-19-12.6l-1-.4 1 .4z"/><path fill="#670E13" d="M313.7 45.8a32 32 0 0 0-24.4-12.1c-10 0-18.7 4.3-26 13A38 38 0 0 1 236.7 62c5.8.6 11.3 1.6 16.5 3.1l1 .4.4.2 1.5.5 1.5.5-1.9-.6c4.4 1.6 7.8 3 10.2 4.2 2.4 1.1 4.9 2.1 7.4 3a46.4 46.4 0 0 0 26.1 1.1c3.1-.7 6-1.6 9-2.8 2.8-1 5.5-2.2 8.1-3.3 1.3-.5 3.7-1.4 7.2-2.5l-2 .6 3.3-1.1c5-1.5 10.6-2.8 16.7-3.8a42 42 0 0 1-28-15.7z"/><path fill="#A42731" d="M230.1 59.4l6.6 2.6a38 38 0 0 0 26.6-15.3c7.3-8.7 16-13 26-13a32 32 0 0 1 24.4 12.1 42 42 0 0 0 28 15.7h4.1l1.3-2.4c-10.4-.2-20-5.4-29-15.6-8.8-10-18.5-15-29-15-10 0-19.6 5.2-29 15.7-9.3 10.6-19.3 15.7-30 15.2z"/><path fill="#E14D7A" d="M292 59.4a79 79 0 0 1-3.6.6 32 32 0 0 1-3.8-1c-2.2-.6-4-.9-5.5-.9a23.8 23.8 0 0 0-9.8 2.2c-1.3.6-2.5 1.6-3.7 3-1.5 1.6-2.2 3-2.2 4.4l2.5 1.2 1 .5c2.2 1 4.3 1.7 6.4 2.5a46.4 46.4 0 0 0 26.1 1.1h.3l1-.3a65.2 65.2 0 0 0 11.6-4 17.3 17.3 0 0 0-4.6-6.3 15 15 0 0 0-10-3.7c-1.3 0-3.2.2-5.7.7z"/><path fill="#C3436A" d="M288.4 60l3.6-.6c2.5-.5 4.4-.7 5.7-.7 3.8 0 7 1.2 10 3.7 2 1.7 3.5 3.8 4.6 6.3l3.4-1.4-1-1c-2.1-2.5-4-4.2-5.5-5.3a21 21 0 0 0-15-3.6c-1 .1-2.9.6-5.6 1.5-1.5-.6-3.6-1.1-6.5-1.5a23.5 23.5 0 0 0-15.8 3c-2.8 1.5-4.5 3.4-5.1 5.8l-.1.5 2.3 1c0-1.3.7-2.8 2.2-4.4 1.2-1.4 2.4-2.4 3.7-3a23.9 23.9 0 0 1 9.8-2.2c1.5 0 3.3.3 5.5 1l3.8 1z"/><path fill="#9F3063" d="M288 59v8.3a.5.5 0 0 0 1 0V59a.5.5 0 0 0-1 0"/><path fill="#FEB0CE" d="M279.5 24.3c-4 1.6-7.3 3.6-10 6.2a.5.5 0 0 0 .6.7c2.7-2.4 5.9-4.4 9.7-6a.5.5 0 0 0-.3-1z"/><path fill="#801118" d="M310.4 30.7l.3.1c.2 0 .3 0 .4-.2l.2-.6c.1-.4-3.6-3-11.1-8.1-7.5-5-15-5-22.5-.2-7.5 5-11.2 7.6-11.1 8 0 .6 0 .8.2 1l.3.1.4-.1c14.3-12.6 28.6-12.6 42.9 0z"/><path fill="#99151E" d="M276 82.5c2.3 2.8 6 4.5 10.9 5 5 .1 9.8-2 14.5-6.5 1.8-1.7 3.6-3.1 5.5-4.2l-6 3a29.8 29.8 0 0 1-27.7-.7l-3-1.9a29.8 29.8 0 0 1 5.8 5.3z"/><path fill="#801118" d="M274.9 81a25 25 0 0 0 25.2 0 .5.5 0 0 0-.5-1 24 24 0 0 1-24.3 0 .5.5 0 0 0-.4 1z"/><path fill="#F3F3F2" d="M234.5 198c-.7-.1-1.2 0-1.5.2-.3.3-.4.7-.4 1.4V214c0 .7.1 1.1.4 1.4.3.2.8.4 1.5.4l10-.1h98.9c.7 0 1.2-.1 1.5-.4s.3-.7.3-1.4a375 375 0 0 1 0-14.2c0-.7-.1-1.2-.4-1.5-.3-.2-.8-.3-1.6-.3H234.4z"/><path fill="#D83641" d="M306.9 209.7c1-1 1.4-2.3 1.2-3.7 0-1.2-.8-2.2-2-3a5.6 5.6 0 0 0-4-1c-.6 0-.9.2-1 .5-.2.2-.3.6-.3 1 .3 2 .3 4 0 5.8 0 1.7.6 2.4 2.1 2a6 6 0 0 0 4-1.6z"/><path fill="#D8343E" d="M244.3 206.3c-.1-1.4-1-2.6-2.5-3.6s-2.9-1.2-4.1-.6c-.5.2-.8.6-.7 1.2a32 32 0 0 1 0 6.7c0 .7.4 1.2 1 1.4 1.5.4 3 0 4.3-1.1 1.4-1.1 2-2.5 2-4z"/><path fill="#D93641" d="M319.3 202c-.5 0-.8.1-1 .3-.2.2-.2.5-.2 1v6.2c0 1.5.6 2.1 2 1.9 1.6-.1 3-.7 4-1.7s1.4-2.3 1.3-3.6c-.2-1.3-.9-2.3-2.1-3.1s-2.6-1.2-4-1z"/><path fill="#DA333F" d="M283.1 210v-.8c.1-.8.3-1.2.7-1.4.3-.2.8 0 1.4.4.7.5 1.1 1 1.2 1.6l.2 1c.2.4.5.5.9.4.4-.2.6-.4.6-.9 0-.2 0-.6-.2-1.1l-.7-1.1c-.3-.3-.5-.6-.5-.8 0-.3.2-.5.5-.9.5-.7.8-1.3.7-2 0-.6-.4-1-1.1-1.5-.9-.7-2-1-3.6-.9-.9 0-1.3.6-1.3 1.5a1776 1776 0 0 1-.3 7.3c.1.3.4.5.7.5.4 0 .7-.1.8-.4v-1z"/><path fill="#D93945" d="M250.8 202.1h-4.5c-.4 0-.7.1-.9.4a125.4 125.4 0 0 1 0 5.5c0 1.6.1 2.6.4 2.9.3.3 1.2.4 2.8.4l1.6.1c.6 0 1-.3 1-.8 0-.4-.4-.6-1-.6l-1.5.1c-.6 0-1 0-1.3-.2-.3-.3-.4-.7-.4-1.3 0-.7.2-1.2.6-1.3l1.5-.2h1.1c.5 0 .7-.2.7-.5 0-.5-.3-.7-.8-.7a5.9 5.9 0 0 1-1.6 0c-.5 0-.9 0-1.1-.2-.2-.2-.3-.6-.4-1.1 0-.6 0-1 .4-1.1.2-.2.6-.2 1.1-.2h2.3c.5 0 .8-.1.9-.5 0-.4-.2-.7-.9-.7z"/><path fill="#D8353E" d="M327.9 202c-.4 0-.6.2-.8.3-.2.2-.3.5-.3.8.2 1 .2 2.1.2 3.5v3.5c0 .8.3 1.2 1 1.2h4.4c.3-.2.4-.3.4-.6s0-.5-.4-.6h-2.2l-1.3-.1c-.3-.2-.4-.6-.4-1.2s.1-1 .4-1.3c.2-.3.6-.4 1.2-.4h1.5c.5 0 .8-.2.8-.6 0-.5-.3-.7-1-.7l-1.4.1c-.6 0-1 0-1.2-.3-.2-.2-.3-.6-.3-1.2 0-.5 0-.9.4-1l1-.1h2.5c.5 0 .8-.2.8-.6 0-.4-.3-.6-.8-.6h-4.5z"/><path fill="#D83944" d="M279.7 203.3c.3 0 .4-.3.4-.6s-.1-.5-.4-.6a3 3 0 0 0-.8 0h-4c-.7 0-1 .3-1 1v7c0 .9.4 1.3 1.3 1.2a76.9 76.9 0 0 1 3.5 0c.6.1.9-.1.9-.6s-.3-.7-1-.7l-1.6.1c-.5 0-1 0-1.2-.3-.2-.2-.3-.6-.4-1.2 0-.5.1-1 .4-1.2l1.2-.3h1.4c.6 0 .9-.1.9-.5 0-.5-.3-.8-.9-.8l-1.4.2c-.5 0-1-.1-1.1-.3-.2-.2-.4-.6-.4-1.1 0-.6 0-1 .3-1.1.2-.2.6-.2 1.1-.2a27.1 27.1 0 0 0 2.8 0z"/><path fill="#DB3944" d="M268.5 208.6h-.4l-1.7-5.4c0-.4-.2-.7-.3-.8-.2-.3-.5-.4-.9-.3-.3.2-.5.4-.5.7l.2.8a226 226 0 0 0 2.3 7.3c.2.4.5.6 1 .5.6 0 1.1-.5 1.5-1.4a418.7 418.7 0 0 0 2.9-7c0-.4-.1-.7-.5-.8-.4-.2-.7-.2-1 .1l-.4 1-2.2 5.3z"/><path fill="#DB3843" d="M311.1 205.6h.1l-.1-2.4c0-.6-.3-1-.8-1l-.6.3-.2.6v3c.1 1.1.2 2.1.5 3 .4 1.2 1.3 2 2.6 2 1.3.2 2.2-.4 3-1.6.4-.8.7-1.8.9-2.9a34.4 34.4 0 0 0 0-3.8c0-.3-.2-.5-.6-.5-.4 0-.6.1-.7.4l-.1 1-.2 2.5c-.1 1-.3 1.8-.6 2.4l-.6 1a1 1 0 0 1-1 .3c-.3 0-.6-.3-.8-.5a2 2 0 0 1-.5-1 16.3 16.3 0 0 1-.3-2.8z"/><path fill="#D83A45" d="M338.8 206a5.8 5.8 0 0 1-.8-.4l-1-.7c-.3-.3-.3-.7-.1-1 .2-.4.5-.6 1-.7.3 0 .7 0 1.2.3l.8.6c.4.1.6 0 .8-.4.2-.4.1-.7-.2-1l-1-.4c-.7-.3-1.4-.4-2.2-.2-.6.1-1 .3-1.3.5-.4.2-.7.6-.8 1.1-.2 1 .1 1.7 1 2.4l1.9 1c.5.3.8.6 1 .9.2.4.2.8 0 1.2-.4.9-1.2 1.1-2.3.8a5 5 0 0 1-1.2-.6l-.6-.3c-.3 0-.5 0-.7.3-.2.2-.2.5 0 .7l.7.6c.8.5 1.8.8 3 .7 1.6-.3 2.5-1 2.8-2.2.2-.8 0-1.5-.4-2-.3-.4-.8-.8-1.6-1.2z"/><path fill="#D93844" d="M291 202.8v-.2l-.6-.5a.6.6 0 0 0-.7 0c-.3.2-.5.4-.4.7 0 .2.2.5.5.8a12 12 0 0 1 1.8 2.8c.5 1.1.5 2.2.1 3.2v1.2c.2.4.4.5.8.6.4 0 .6-.2.7-.5l.1-1a9 9 0 0 1 .4-3.2c.4-1.1 1-2 1.9-2.8.4-.3.6-.6.7-.8.2-.3.2-.6-.1-1-.3-.2-.6-.2-1 0l-.7.8c-.9 1-1.5 1.5-1.8 1.5-.3 0-.8-.6-1.7-1.6z"/><path fill="#D7303C" d="M253.6 202.2c-.3 0-.5.1-.6.4l-.1.7a66.6 66.6 0 0 1-.2 4.4v2.3c0 .6.1 1 .3 1.2.2.2.6.3 1.2.3a118.6 118.6 0 0 0 5-.2c.2 0 .3-.3.3-.5 0-.4-.3-.6-1-.7a27.3 27.3 0 0 0-2.4 0c-.7.2-1.2 0-1.5-.2-.3-.3-.4-.8-.3-1.5l.2-5c0-.9-.3-1.2-1-1.2z"/><path fill="#DA4853" d="M261 209.9v1c0 .2.3.4.7.5.4 0 .6-.1.8-.4l.1-1 .3-6.7v-.6c-.2-.3-.4-.5-.8-.5s-.7.1-.8.5l-.2 1-.2 6.2z"/><path fill="#FFF" d="M306.6 206.3c-.2-1.4-1-2.4-2.7-3-1-.3-1.5 0-1.4 1a85.5 85.5 0 0 1 0 5c0 .3 0 .6.3.7.6.3 1.2.1 2-.4.6-.4 1-.9 1.4-1.4a3 3 0 0 0 .4-1.9zM238.8 206.8h-.1v1.9c-.2 1.4.4 1.8 1.8 1.2 1.4-.8 2.2-1.8 2.2-3.2 0-1.4-.6-2.4-2-3.1-.8-.4-1.3-.5-1.6-.3-.3.2-.5.7-.5 1.6l.2 1.9zM320.8 203.3l-.9.1-.2.9a127 127 0 0 1 .2 5.6c.1.2.4.2.9.2.7-.1 1.4-.5 2-1.2.6-.7 1-1.4 1-2.2 0-.9-.3-1.6-1-2.3-.5-.6-1.2-1-2-1.1zM283.4 204.9v1c.2.3.5.4 1 .3.6 0 1-.2 1.2-.3.5-.2.7-.6.7-1 0-.6-.2-1-.7-1.3-.3-.1-.7-.3-1.3-.3-.5 0-.8.1-.9.5v1z"/></svg>