<svg xmlns="http://www.w3.org/2000/svg" xmlns:xlink="http://www.w3.org/1999/xlink" viewBox="0 0 319.9 116.79"><defs><style>.cls-1{fill:#231f20;}.cls-2{fill:#96191c;}.cls-3{fill:#77787b;}.cls-4{fill:url(#linear-gradient);}</style><linearGradient id="linear-gradient" x1="312.76" y1="26.42" x2="321.67" y2="45.18" gradientTransform="matrix(1.03, -0.11, 0.11, 1.07, -162.63, 88.66)" gradientUnits="userSpaceOnUse"><stop offset="0" stop-color="#eeeeef"/><stop offset="0.2" stop-color="#e9e9ea"/><stop offset="0.44" stop-color="#dadadc"/><stop offset="0.7" stop-color="#c1c2c5"/><stop offset="0.98" stop-color="#9fa1a4"/><stop offset="1" stop-color="#9c9ea1"/></linearGradient></defs><title>RLG Corp Logo</title><g id="Layer_2" data-name="Layer 2"><g id="Logo"><path class="cls-1" d="M19.87.69H36.13c5.26,0,8.9,1.37,11.21,3.68a10.78,10.78,0,0,1,3,8v.09A10.9,10.9,0,0,1,43.31,23.1l8.21,12h-11L33.63,24.67H29.4V35.09H19.87ZM35.74,17.2c3.2,0,5.11-1.57,5.11-4.08V13c0-2.75-2-4.12-5.16-4.12H29.4v8.3Z"/><path class="cls-1" d="M55.45.69H83.12V8.75H64.89V14H81.4v7.52H64.89V27H83.37v8.11H55.45Z"/><path class="cls-1" d="M85.92,30l5.31-6.34a17.85,17.85,0,0,0,11.16,4.13c2.6,0,4-.89,4-2.36v-.1c0-1.47-1.13-2.21-5.85-3.34-7.32-1.67-13-3.74-13-10.76v-.1c0-6.39,5.06-11,13.31-11,5.85,0,10.42,1.57,14.16,4.57l-4.77,6.73A16.86,16.86,0,0,0,100.62,8c-2.31,0-3.44.93-3.44,2.21v.1c0,1.57,1.18,2.26,6,3.34C111,15.38,116,17.94,116,24.38v.1c0,7-5.55,11.2-13.91,11.2A24.16,24.16,0,0,1,85.92,30Z"/><path class="cls-1" d="M119.69,18v-.1C119.69,8,127.65,0,138.27,0s18.48,7.91,18.48,17.79v.1c0,9.88-8,17.89-18.58,17.89S119.69,27.87,119.69,18ZM147,18v-.1c0-5-3.53-9.29-8.79-9.29s-8.75,4.23-8.75,9.19v.1c0,5,3.59,9.29,8.85,9.29S147,23,147,18Z"/><path class="cls-1" d="M161.52,20V.69h9.63V19.81c0,5,2.5,7.32,6.34,7.32s6.39-2.26,6.39-7.08V.69h9.63V19.76c0,11-6.34,16-16.12,16S161.52,30.77,161.52,20Z"/><path class="cls-1" d="M199.41.69h16.27c5.25,0,8.89,1.37,11.2,3.68a10.74,10.74,0,0,1,3.05,8v.09a10.9,10.9,0,0,1-7.08,10.62l8.21,12h-11l-6.93-10.42h-4.23V35.09h-9.53ZM215.28,17.2c3.2,0,5.11-1.57,5.11-4.08V13c0-2.75-2-4.12-5.16-4.12h-6.29v8.3Z"/><path class="cls-1" d="M233.86,18v-.1A17.63,17.63,0,0,1,252,0c7,0,11.55,3,14.59,7.13l-7.17,5.55c-2-2.41-4.23-4-7.52-4-4.82,0-8.21,4.13-8.21,9.14v.1c0,5.16,3.39,9.19,8.21,9.19,3.59,0,5.7-1.67,7.76-4.18L266.79,28c-3.24,4.48-7.62,7.77-15.19,7.77A17.47,17.47,0,0,1,233.86,18Z"/><path class="cls-1" d="M271.17.69h27.67V8.75H280.6V14h16.51v7.52H280.6V27h18.48v8.11H271.17Z"/><path class="cls-2" d="M0,53.59H2.48V72H14.87v2.14H0Z"/><path class="cls-2" d="M31.07,53.44h2.32l10,20.73H40.75l-2.58-5.44h-12l-2.6,5.44H21Zm6.12,13.2-5-10.49-5,10.49Z"/><path class="cls-2" d="M49.59,53.59H59a8.42,8.42,0,0,1,5.75,1.82,4.42,4.42,0,0,1,1.41,3.29v.06a5,5,0,0,1-3.49,4.77c2.61.73,4.72,2.14,4.72,5v.06c0,3.52-3.18,5.61-8,5.61H49.59Zm9,9.17c3,0,5.06-1.26,5.06-3.67V59c0-2-1.73-3.35-4.87-3.35H52v7.08Zm.88,9.32c3.33,0,5.4-1.38,5.4-3.67v-.06c0-2.23-2-3.53-5.84-3.53H52v7.26Z"/><path class="cls-2" d="M73.52,53.59h15.9v2.12H76v7H88v2.12H76v7.21H89.58v2.11H73.52Z"/><path class="cls-2" d="M95.75,53.59h2.49V72h12.38v2.14H95.75Z"/><path class="cls-2" d="M209,63.94v-.06c0-5.65,4.14-10.65,10.32-10.65A10.82,10.82,0,0,1,227,56l-1.5,1.76a8.76,8.76,0,0,0-6.26-2.35c-4.56,0-7.82,3.85-7.82,8.44v.06c0,4.91,3.14,8.56,8.14,8.56a9.65,9.65,0,0,0,5.94-2.06V65.26h-6.26V63.17h8.5v8.21a12.51,12.51,0,0,1-8.27,3.14C213,74.52,209,69.82,209,63.94Z"/><path class="cls-2" d="M233.7,53.59h8.85a8.08,8.08,0,0,1,5.85,2.06A5.68,5.68,0,0,1,250,59.7v.06c0,3.41-2.35,5.41-5.59,6l6.33,8.41h-2.86l-6-8H236v8H233.7Zm8.65,10.5c3.08,0,5.29-1.59,5.29-4.24v-.06c0-2.53-1.94-4.06-5.26-4.06H236v8.36Z"/><path class="cls-2" d="M254.79,63.94v-.06a10.5,10.5,0,1,1,21-.06s0,0,0,.06a10.5,10.5,0,1,1-21,.06Zm18.58,0v-.06a8.18,8.18,0,0,0-8.11-8.5c-4.71,0-8.06,3.77-8.06,8.44v.06a8.18,8.18,0,0,0,8.12,8.5C270,72.38,273.37,68.61,273.37,63.94Z"/><path class="cls-2" d="M281.11,65.56v-12h2.32V65.41c0,4.44,2.35,6.94,6.29,6.94s6.21-2.3,6.21-6.79v-12h2.32V65.38c0,6-3.44,9.12-8.58,9.12S281.11,71.38,281.11,65.56Z"/><path class="cls-2" d="M304.49,53.59h7.7c4.65,0,7.71,2.47,7.71,6.52v.06c0,4.44-3.71,6.74-8.09,6.74h-5v7.26h-2.32Zm7.41,11.2c3.41,0,5.65-1.82,5.65-4.53V60.2c0-2.94-2.21-4.47-5.53-4.47h-5.21v9.06Z"/><path class="cls-3" d="M109.62,91.23H19.14a1,1,0,0,1,0-2h90.48a1,1,0,0,1,0,2Z"/><path class="cls-3" d="M300,91.23H209.55a1,1,0,0,1,0-2H300a1,1,0,0,1,0,2Z"/><path class="cls-2" d="M181,81.18C161.85,66.46,139.29,65,139.29,65A123.27,123.27,0,0,1,174,84.2,12.11,12.11,0,0,1,181,81.18Z"/><path class="cls-2" d="M167.82,97.28c-9.91-10-25.31-21.5-41.91-25.31v38.69a6,6,0,0,0,.84,2.82,4.93,4.93,0,0,0,4.2,1.67h15.67C154.44,111.85,164.66,106,167.82,97.28Z"/><path class="cls-1" d="M152.15,112.54H131.3a3.37,3.37,0,0,1-3.37-3.37V52.47a3.37,3.37,0,0,1,3.37-3.37H188a3.37,3.37,0,0,1,3.37,3.37V83.28a42.83,42.83,0,0,1,4.26,2.16v-33A7.64,7.64,0,0,0,188,44.85H131.3a7.63,7.63,0,0,0-7.62,7.62v56.7a7.63,7.63,0,0,0,7.62,7.62h11.09A74.34,74.34,0,0,0,152.15,112.54Z"/><path class="cls-4" d="M153.75,116.2s13.17-5.52,17.78-16.78c3.26-7.23,2.63-19.89,23.25-12C194.78,87.39,183.85,108.53,153.75,116.2Z"/><path class="cls-3" d="M307.6,88.53H306V88h3.87v.51h-1.66v4.41h-.56Z"/><path class="cls-3" d="M311,88h.57l1.79,2.68L315.18,88h.56v4.92h-.55V89l-1.79,2.64h0L311.57,89v4H311Z"/></g></g></svg>